<?xml version="1.0" encoding="UTF-8" standalone="no"?>
<svg
   viewBox="0 0 287.99844 364.25"
   version="1.1"
   id="svg221"
   sodipodi:docname="alae_v2_rev3-01-01.svg"
   width="101.6mm"
   height="128.5mm"
   inkscape:version="1.3.2 (091e20e, 2023-11-25, custom)"
   xmlns:inkscape="http://www.inkscape.org/namespaces/inkscape"
   xmlns:sodipodi="http://sodipodi.sourceforge.net/DTD/sodipodi-0.dtd"
   xmlns="http://www.w3.org/2000/svg"
   xmlns:svg="http://www.w3.org/2000/svg">
  <defs
     id="defs221" />
  <sodipodi:namedview
     id="namedview221"
     pagecolor="#ffffff"
     bordercolor="#000000"
     borderopacity="0.25"
     inkscape:showpageshadow="2"
     inkscape:pageopacity="0.0"
     inkscape:pagecheckerboard="0"
     inkscape:deskcolor="#d1d1d1"
     showgrid="false"
     inkscape:zoom="2.160604"
     inkscape:cx="144.17265"
     inkscape:cy="372.34959"
     inkscape:window-width="1920"
     inkscape:window-height="1001"
     inkscape:window-x="-9"
     inkscape:window-y="-9"
     inkscape:window-maximized="1"
     inkscape:current-layer="svg221"
     inkscape:document-units="mm" />
  <g
     id="bg">
    <rect
       width="288"
       height="364.25"
       style="fill:#e5e5e5"
       id="rect1"
       x="0"
       y="0" />
  </g>
  <g
     id="lines">
    <path
       d="M 77.22,42.61 C 70.24,39.28 66.45,38.17 62.6,36.47 52.21,31.88 24.69,36.78 24.69,36.78"
       style="fill:none;stroke:#ffda22;stroke-miterlimit:10"
       id="path1" />
    <path
       d="m 24.07,104.64 c 0,0 24.46,4.59 37.61,-1.83 7.21,-3.52 14.49,-11.7 24.02,-23.28"
       style="fill:none;stroke:#ffda22;stroke-miterlimit:10"
       id="path2" />
    <path
       d="m 262.54,38.3 c 0,0 -19.26,-5.2 -36.08,-2.14 -16.82,3.06 -16.48,5.76 -16.48,5.76"
       style="fill:none;stroke:#ffda22;stroke-miterlimit:10"
       id="path3" />
    <path
       d="m 263.15,104.34 c 0,0 -26.6,-5.5 -36.99,-1.83 -10.39,3.67 -28.98,8.17 -28.98,8.17"
       style="fill:none;stroke:#ffda22;stroke-miterlimit:10"
       id="path4" />
    <line
       x1="23.77"
       y1="166.09"
       x2="86.160004"
       y2="165.17999"
       style="fill:none;stroke:#ffda22;stroke-miterlimit:10"
       id="line4" />
    <polyline
       points="264.07 165.48 227.08 165.18 201.27 166.4"
       style="fill:none;stroke:#ffda22;stroke-miterlimit:10"
       id="polyline4" />
    <line
       x1="47.310001"
       y1="296.95001"
       x2="47.790001"
       y2="242.73"
       style="fill:none;stroke:#ffda22;stroke-miterlimit:10"
       id="line5" />
    <line
       x1="239.92"
       y1="296.95001"
       x2="240.55"
       y2="242.78999"
       style="fill:none;stroke:#ffda22;stroke-miterlimit:10"
       id="line6" />
    <line
       x1="183.66"
       y1="298.17001"
       x2="184.07001"
       y2="271.03"
       style="fill:none;stroke:#ffda22;stroke-miterlimit:10"
       id="line7" />
    <line
       x1="64.279999"
       y1="327.29001"
       x2="143.77"
       y2="327.29001"
       style="fill:#f7f7f7;stroke:#ffda22;stroke-miterlimit:10"
       id="line8" />
    <path
       d="m 121.17,246.72 h 11.01 c 6.6,0 12,5.4 12,12 v 26.6 c 0,6.6 -5.4,12 -12,12 h -26.6"
       style="fill:none;stroke:#ffda22;stroke-miterlimit:10"
       id="path8" />
    <line
       x1="133.98"
       y1="56.400002"
       x2="154.31"
       y2="56.400002"
       style="fill:none;stroke:#ffda22;stroke-miterlimit:10"
       id="line9" />
  </g>
  <g
     id="markings">
    <polygon
       points="62.28,305.63 47.77,280.49 33.26,305.63 "
       style="fill:#ffda22"
       id="polygon9" />
    <polygon
       points="118.97,305.63 104.46,280.49 89.95,305.63 "
       style="fill:#ffda22"
       id="polygon10" />
    <polygon
       points="45.81,338.07 31.3,312.94 16.78,338.07 "
       style="fill:#ffda22"
       id="polygon11" />
    <polygon
       points="78.76,338.07 64.24,312.94 49.73,338.07 "
       style="fill:#ffda22"
       id="polygon12" />
    <polygon
       points="238.56,338.07 224.05,312.94 209.54,338.07 "
       style="fill:#ffda22"
       id="polygon13" />
    <polygon
       points="271.51,338.07 257,312.94 242.49,338.07 "
       style="fill:#ffda22"
       id="polygon14" />
    <polygon
       points="277.71,173.95 263.2,148.81 248.69,173.95 "
       style="fill:#ffda22"
       id="polygon15" />
    <polygon
       points="277.71,113 263.2,87.87 248.69,113 "
       style="fill:#ffda22"
       id="polygon16" />
    <polygon
       points="277.71,46.39 263.2,21.25 248.69,46.39 "
       style="fill:#ffda22"
       id="polygon17" />
    <polygon
       points="39.6,173.95 25.09,148.81 10.58,173.95 "
       style="fill:#ffda22"
       id="polygon18" />
    <polygon
       points="39.6,113 25.09,87.87 10.58,113 "
       style="fill:#ffda22"
       id="polygon19" />
    <polygon
       points="39.6,46.39 25.09,21.25 10.58,46.39 "
       style="fill:#ffda22"
       id="polygon20" />
    <polygon
       points="198.34,305.63 183.83,280.49 169.32,305.63 "
       style="fill:#ffda22"
       id="polygon21" />
    <polygon
       points="255.04,305.63 240.53,280.49 226.01,305.63 "
       style="fill:#ffda22"
       id="polygon22" />
    <g
       id="g24">
      <g
         id="g22">
        <path
           d="m 96.6,180.14 c -4.69,-2.72 -7.84,-7.79 -7.84,-13.59 0,-8.67 7.03,-15.7 15.7,-15.7 8.67,0 15.7,7.03 15.7,15.7 0,5.82 -3.17,10.9 -7.87,13.61"
           style="fill:none;stroke:#1d1d1b;stroke-width:0.25px;stroke-miterlimit:10"
           id="path22" />
        <circle
           cx="104.46"
           cy="166.53999"
           r="15.7"
           style="fill:none"
           id="circle22" />
      </g>
      <line
         x1="104.46"
         y1="166.53999"
         x2="95.879997"
         y2="181.41"
         style="fill:none;stroke:#1d1d1b;stroke-width:0.25px;stroke-miterlimit:10"
         id="line22" />
      <line
         x1="104.46"
         y1="166.53999"
         x2="113.04"
         y2="181.41"
         style="fill:none;stroke:#1d1d1b;stroke-width:0.25px;stroke-miterlimit:10"
         id="line23" />
      <line
         x1="104.46"
         y1="166.53999"
         x2="104.46"
         y2="148.81"
         style="fill:none;stroke:#1d1d1b;stroke-width:0.25px;stroke-miterlimit:10"
         id="line24" />
    </g>
    <g
       id="g27">
      <g
         id="g25">
        <path
           d="m 39.91,231.77 c -4.69,-2.72 -7.84,-7.79 -7.84,-13.59 0,-8.67 7.03,-15.7 15.7,-15.7 8.67,0 15.7,7.03 15.7,15.7 0,5.82 -3.17,10.9 -7.87,13.61"
           style="fill:none;stroke:#1d1d1b;stroke-width:0.25px;stroke-miterlimit:10"
           id="path24" />
        <circle
           cx="47.77"
           cy="218.17"
           r="15.7"
           style="fill:none"
           id="circle24" />
      </g>
      <line
         x1="47.77"
         y1="218.17"
         x2="39.18"
         y2="233.03999"
         style="fill:none;stroke:#1d1d1b;stroke-width:0.25px;stroke-miterlimit:10"
         id="line25" />
      <line
         x1="47.77"
         y1="218.17"
         x2="56.349998"
         y2="233.03999"
         style="fill:none;stroke:#1d1d1b;stroke-width:0.25px;stroke-miterlimit:10"
         id="line26" />
      <line
         x1="47.77"
         y1="218.17"
         x2="47.77"
         y2="200.44"
         style="fill:none;stroke:#1d1d1b;stroke-width:0.25px;stroke-miterlimit:10"
         id="line27" />
    </g>
    <g
       id="g30">
      <g
         id="g28">
        <path
           d="m 96.6,260.66 c -4.69,-2.72 -7.84,-7.79 -7.84,-13.59 0,-8.67 7.03,-15.7 15.7,-15.7 8.67,0 15.7,7.03 15.7,15.7 0,5.82 -3.17,10.9 -7.87,13.61"
           style="fill:none;stroke:#1d1d1b;stroke-width:0.25px;stroke-miterlimit:10"
           id="path27" />
        <circle
           cx="104.46"
           cy="247.06"
           r="15.7"
           style="fill:none"
           id="circle27" />
      </g>
      <line
         x1="104.46"
         y1="247.06"
         x2="95.879997"
         y2="261.92999"
         style="fill:none;stroke:#1d1d1b;stroke-width:0.25px;stroke-miterlimit:10"
         id="line28" />
      <line
         x1="104.46"
         y1="247.06"
         x2="113.04"
         y2="261.92999"
         style="fill:none;stroke:#1d1d1b;stroke-width:0.25px;stroke-miterlimit:10"
         id="line29" />
      <line
         x1="104.46"
         y1="247.06"
         x2="104.46"
         y2="229.34"
         style="fill:none;stroke:#1d1d1b;stroke-width:0.25px;stroke-miterlimit:10"
         id="line30" />
    </g>
    <g
       id="g32">
      <g
         id="g31">
        <path
           d="m 175.97,260.66 c -4.69,-2.72 -7.84,-7.79 -7.84,-13.59 0,-8.67 7.03,-15.7 15.7,-15.7 8.67,0 15.7,7.03 15.7,15.7 0,5.82 -3.17,10.9 -7.87,13.61"
           style="fill:none;stroke:#1d1d1b;stroke-width:0.25px;stroke-miterlimit:10"
           id="path30" />
        <circle
           cx="183.83"
           cy="247.06"
           r="15.7"
           style="fill:none"
           id="circle30" />
      </g>
      <line
         x1="183.83"
         y1="247.06"
         x2="175.25"
         y2="261.92999"
         style="fill:none;stroke:#1d1d1b;stroke-width:0.25px;stroke-miterlimit:10"
         id="line31" />
      <line
         x1="183.83"
         y1="247.06"
         x2="192.41"
         y2="261.92999"
         style="fill:none;stroke:#1d1d1b;stroke-width:0.25px;stroke-miterlimit:10"
         id="line32" />
    </g>
    <g
       id="g34">
      <g
         id="g33">
        <path
           d="m 232.66,233.45 c -4.69,-2.72 -7.84,-7.79 -7.84,-13.59 0,-8.67 7.03,-15.7 15.7,-15.7 8.67,0 15.7,7.03 15.7,15.7 0,5.82 -3.17,10.9 -7.87,13.61"
           style="fill:none;stroke:#1d1d1b;stroke-width:0.25px;stroke-miterlimit:10"
           id="path32" />
        <circle
           cx="240.52"
           cy="219.85001"
           r="15.7"
           style="fill:none"
           id="circle32" />
      </g>
      <line
         x1="240.52"
         y1="219.85001"
         x2="231.94"
         y2="234.72"
         style="fill:none;stroke:#1d1d1b;stroke-width:0.25px;stroke-miterlimit:10"
         id="line33" />
      <line
         x1="240.52"
         y1="219.85001"
         x2="249.11"
         y2="234.72"
         style="fill:none;stroke:#1d1d1b;stroke-width:0.25px;stroke-miterlimit:10"
         id="line34" />
    </g>
    <g
       id="g49">
      <g
         id="g42">
        <g
           id="g35">
          <path
             d="m 136.5,149.72 c -4.66,-2.7 -7.8,-7.75 -7.8,-13.52 0,-8.63 6.99,-15.62 15.62,-15.62 8.63,0 15.62,6.99 15.62,15.62 0,5.79 -3.15,10.84 -7.83,13.54"
             style="fill:none;stroke:#1d1d1b;stroke-width:0.25px;stroke-miterlimit:10"
             id="path34" />
          <circle
             cx="144.32001"
             cy="136.19"
             r="15.62"
             style="fill:none"
             id="circle34" />
        </g>
        <g
           id="g41">
          <line
             x1="144.50999"
             y1="136.22"
             x2="160.83"
             y2="141.24001"
             style="fill:none;stroke:#1d1d1b;stroke-width:0.25px;stroke-miterlimit:10"
             id="line35" />
          <line
             x1="144.55"
             y1="136.14"
             x2="159.92999"
             y2="128.72"
             style="fill:none;stroke:#1d1d1b;stroke-width:0.25px;stroke-miterlimit:10"
             id="line36" />
          <line
             x1="144.52"
             y1="136.05"
             x2="150.75"
             y2="120.15"
             style="fill:none;stroke:#1d1d1b;stroke-width:0.25px;stroke-miterlimit:10"
             id="line37" />
          <line
             x1="144.44"
             y1="136"
             x2="138.2"
             y2="120.11"
             style="fill:none;stroke:#1d1d1b;stroke-width:0.25px;stroke-miterlimit:10"
             id="line38" />
          <line
             x1="144.35001"
             y1="136.02"
             x2="128.97"
             y2="128.62"
             style="fill:none;stroke:#1d1d1b;stroke-width:0.25px;stroke-miterlimit:10"
             id="line39" />
          <line
             x1="144.3"
             y1="136.10001"
             x2="127.99"
             y2="141.14"
             style="fill:none;stroke:#1d1d1b;stroke-width:0.25px;stroke-miterlimit:10"
             id="line40" />
          <line
             x1="144.32001"
             y1="136.19"
             x2="135.78"
             y2="150.98"
             style="fill:none;stroke:#1d1d1b;stroke-width:0.25px;stroke-miterlimit:10"
             id="line41" />
        </g>
        <line
           x1="144.32001"
           y1="136.19"
           x2="152.85001"
           y2="150.98"
           style="fill:none;stroke:#1d1d1b;stroke-width:0.25px;stroke-miterlimit:10"
           id="line42" />
      </g>
      <path
         d="m 134.24,152.13 h -0.4 l 0.14,-0.25 h 0.53 v 2.39 h -0.27 z"
         style="fill:#1d1d1b"
         id="path42" />
      <path
         d="m 124.82,142.35 0.87,-1.01 c 0.06,-0.07 0.22,-0.26 0.28,-0.35 0.11,-0.15 0.13,-0.27 0.13,-0.37 0,-0.27 -0.19,-0.47 -0.48,-0.47 -0.17,0 -0.31,0.08 -0.4,0.21 -0.05,0.07 -0.08,0.16 -0.08,0.28 h -0.27 c 0.01,-0.24 0.09,-0.39 0.18,-0.5 0.1,-0.11 0.27,-0.24 0.57,-0.24 0.42,0 0.74,0.3 0.74,0.71 0,0.16 -0.05,0.31 -0.19,0.51 -0.1,0.14 -0.23,0.29 -0.33,0.4 l -0.5,0.56 h 1.01 v 0.24 h -1.55 z"
         style="fill:#1d1d1b"
         id="path43" />
      <path
         d="m 126.27,127.08 c 0,-0.13 0.05,-0.25 0.11,-0.35 0.16,-0.25 0.41,-0.28 0.56,-0.28 0.45,0 0.67,0.32 0.67,0.65 0,0.17 -0.06,0.41 -0.31,0.53 0.08,0.03 0.34,0.17 0.34,0.58 0,0.45 -0.33,0.72 -0.74,0.72 -0.25,0 -0.54,-0.1 -0.67,-0.41 -0.04,-0.09 -0.05,-0.17 -0.05,-0.25 h 0.27 c 0.01,0.09 0.04,0.18 0.09,0.24 0.08,0.11 0.22,0.18 0.37,0.18 0.27,0 0.47,-0.22 0.47,-0.48 0,-0.14 -0.05,-0.32 -0.24,-0.4 -0.08,-0.04 -0.18,-0.05 -0.27,-0.05 v -0.24 c 0.09,0 0.2,-0.01 0.27,-0.05 0.08,-0.04 0.2,-0.14 0.2,-0.35 0,-0.21 -0.11,-0.41 -0.41,-0.41 -0.1,0 -0.22,0.02 -0.31,0.14 -0.05,0.06 -0.09,0.15 -0.09,0.25 h -0.27 z"
         style="fill:#1d1d1b"
         id="path44" />
      <path
         d="m 137.39,118.57 h 0.29 v 0.24 h -0.29 v 0.45 h -0.27 v -0.45 h -1.23 l 1.49,-2.07 v 1.83 z m -0.27,0 v -1.06 l -0.76,1.06 z"
         style="fill:#1d1d1b"
         id="path45" />
      <path
         d="m 152.4,117.05 h -0.77 l -0.15,0.52 c 0,0 0.09,-0.01 0.15,-0.01 0.48,0 0.79,0.36 0.79,0.83 0,0.53 -0.4,0.86 -0.87,0.86 -0.19,0 -0.37,-0.05 -0.53,-0.19 -0.08,-0.06 -0.15,-0.15 -0.21,-0.24 l 0.21,-0.15 c 0.04,0.08 0.09,0.14 0.16,0.19 0.1,0.08 0.22,0.14 0.39,0.14 0.34,0 0.59,-0.28 0.59,-0.61 0,-0.33 -0.25,-0.59 -0.59,-0.59 -0.09,0 -0.25,0.01 -0.46,0.16 l 0.35,-1.15 h 0.95 v 0.24 z"
         style="fill:#1d1d1b"
         id="path46" />
      <path
         d="m 162.21,126.47 -0.55,0.76 c 0.07,-0.02 0.14,-0.03 0.21,-0.03 0.46,0 0.77,0.34 0.77,0.79 0,0.48 -0.34,0.82 -0.82,0.82 -0.56,0 -0.83,-0.44 -0.83,-0.81 0,-0.09 0.02,-0.3 0.2,-0.55 l 0.81,-1.13 0.2,0.15 z m 0.17,1.52 c 0,-0.32 -0.24,-0.55 -0.56,-0.55 -0.32,0 -0.55,0.24 -0.55,0.55 0,0.31 0.23,0.57 0.56,0.57 0.33,0 0.56,-0.25 0.56,-0.57 z"
         style="fill:#1d1d1b"
         id="path47" />
      <path
         d="m 163.17,140.58 h -1.31 v -0.24 h 1.76 l -1.6,2.45 -0.21,-0.14 z"
         style="fill:#1d1d1b"
         id="path48" />
      <path
         d="m 155.54,152.8 c 0,0.37 -0.24,0.7 -0.73,0.7 -0.49,0 -0.73,-0.33 -0.73,-0.7 0,-0.26 0.12,-0.48 0.36,-0.58 -0.19,-0.11 -0.29,-0.3 -0.29,-0.52 0,-0.34 0.23,-0.66 0.66,-0.66 0.43,0 0.66,0.32 0.66,0.66 0,0.22 -0.1,0.41 -0.29,0.52 0.24,0.11 0.36,0.33 0.36,0.58 z m -0.26,0 c 0,-0.27 -0.19,-0.46 -0.47,-0.46 -0.28,0 -0.47,0.19 -0.47,0.46 0,0.27 0.19,0.47 0.47,0.47 0.28,0 0.47,-0.19 0.47,-0.47 z m -0.06,-1.1 c 0,-0.26 -0.19,-0.42 -0.41,-0.42 -0.22,0 -0.41,0.16 -0.41,0.42 0,0.24 0.18,0.41 0.41,0.41 0.23,0 0.41,-0.18 0.41,-0.41 z"
         style="fill:#1d1d1b"
         id="path49" />
    </g>
    <g
       id="g52">
      <g
         id="g50">
        <path
           d="m 98.99,122.42 c -3.26,-1.89 -5.45,-5.42 -5.45,-9.46 0,-6.03 4.89,-10.93 10.93,-10.93 6.04,0 10.93,4.89 10.93,10.93 0,4.05 -2.2,7.58 -5.48,9.47"
           style="fill:none;stroke:#1d1d1b;stroke-width:0.25px;stroke-miterlimit:10"
           id="path50" />
        <circle
           cx="104.46"
           cy="112.96"
           r="10.92"
           style="fill:none"
           id="circle50" />
      </g>
      <line
         x1="104.46"
         y1="112.96"
         x2="98.489998"
         y2="123.31"
         style="fill:none;stroke:#1d1d1b;stroke-width:0.25px;stroke-miterlimit:10"
         id="line50" />
      <line
         x1="104.46"
         y1="112.96"
         x2="110.43"
         y2="123.31"
         style="fill:none;stroke:#1d1d1b;stroke-width:0.25px;stroke-miterlimit:10"
         id="line51" />
      <line
         x1="104.46"
         y1="112.96"
         x2="104.46"
         y2="100.62"
         style="fill:none;stroke:#1d1d1b;stroke-width:0.25px;stroke-miterlimit:10"
         id="line52" />
    </g>
    <g
       id="g54">
      <g
         id="g53">
        <path
           d="M 56.47,45.89 C 53.21,44 51.02,40.47 51.02,36.43 c 0,-6.03 4.89,-10.93 10.93,-10.93 6.04,0 10.93,4.89 10.93,10.93 0,4.05 -2.2,7.58 -5.48,9.47"
           style="fill:none;stroke:#1d1d1b;stroke-width:0.25px;stroke-miterlimit:10"
           id="path52" />
        <circle
           cx="61.939999"
           cy="36.43"
           r="10.92"
           style="fill:none"
           id="circle52" />
      </g>
      <line
         x1="61.939999"
         y1="36.43"
         x2="55.970001"
         y2="46.77"
         style="fill:none;stroke:#1d1d1b;stroke-width:0.25px;stroke-miterlimit:10"
         id="line53" />
      <line
         x1="61.939999"
         y1="36.43"
         x2="67.910004"
         y2="46.77"
         style="fill:none;stroke:#1d1d1b;stroke-width:0.25px;stroke-miterlimit:10"
         id="line54" />
    </g>
    <g
       id="g57">
      <g
         id="g55">
        <path
           d="m 56.47,112.5 c -3.26,-1.89 -5.45,-5.42 -5.45,-9.46 0,-6.03 4.89,-10.93 10.93,-10.93 6.04,0 10.93,4.89 10.93,10.93 0,4.05 -2.2,7.58 -5.48,9.47"
           style="fill:none;stroke:#1d1d1b;stroke-width:0.25px;stroke-miterlimit:10"
           id="path54" />
        <circle
           cx="61.939999"
           cy="103.04"
           r="10.92"
           style="fill:none"
           id="circle54" />
      </g>
      <line
         x1="61.939999"
         y1="103.04"
         x2="55.970001"
         y2="113.38"
         style="fill:none;stroke:#1d1d1b;stroke-width:0.25px;stroke-miterlimit:10"
         id="line55" />
      <line
         x1="61.939999"
         y1="103.04"
         x2="67.910004"
         y2="113.38"
         style="fill:none;stroke:#1d1d1b;stroke-width:0.25px;stroke-miterlimit:10"
         id="line56" />
      <line
         x1="61.939999"
         y1="103.04"
         x2="61.939999"
         y2="90.699997"
         style="fill:none;stroke:#1d1d1b;stroke-width:0.25px;stroke-miterlimit:10"
         id="line57" />
    </g>
    <g
       id="g60">
      <g
         id="g58">
        <path
           d="m 56.47,174.86 c -3.26,-1.89 -5.45,-5.42 -5.45,-9.46 0,-6.03 4.89,-10.93 10.93,-10.93 6.04,0 10.93,4.89 10.93,10.93 0,4.05 -2.2,7.58 -5.48,9.47"
           style="fill:none;stroke:#1d1d1b;stroke-width:0.25px;stroke-miterlimit:10"
           id="path57" />
        <circle
           cx="61.939999"
           cy="165.39999"
           r="10.92"
           style="fill:none"
           id="circle57" />
      </g>
      <line
         x1="61.939999"
         y1="165.39999"
         x2="55.970001"
         y2="175.75"
         style="fill:none;stroke:#1d1d1b;stroke-width:0.25px;stroke-miterlimit:10"
         id="line58" />
      <line
         x1="61.939999"
         y1="165.39999"
         x2="67.910004"
         y2="175.75"
         style="fill:none;stroke:#1d1d1b;stroke-width:0.25px;stroke-miterlimit:10"
         id="line59" />
      <line
         x1="61.939999"
         y1="165.39999"
         x2="61.939999"
         y2="153.06"
         style="fill:none;stroke:#1d1d1b;stroke-width:0.25px;stroke-miterlimit:10"
         id="line60" />
    </g>
    <g
       id="g62">
      <path
         d="m 170.67,79.5 c -0.58,-0.33 -1.15,-0.7 -1.7,-1.07 l 0.14,-0.21 c 0.54,0.37 1.11,0.73 1.68,1.06 z"
         style="fill:#1d1d1b"
         id="path60" />
      <path
         d="m 166.72,76.7 c -1.02,-0.88 -1.98,-1.84 -2.86,-2.86 l 0.19,-0.16 c 0.87,1.01 1.82,1.97 2.83,2.83 z m 34.24,-0.01 -0.16,-0.19 c 1.01,-0.87 1.96,-1.82 2.83,-2.84 l 0.19,0.16 c -0.87,1.02 -1.83,1.98 -2.86,2.86 z M 162.14,71.6 c -0.76,-1.11 -1.44,-2.29 -2.02,-3.5 l 0.23,-0.11 c 0.58,1.2 1.25,2.37 2,3.47 z m 43.4,-0.02 -0.21,-0.14 c 0.75,-1.1 1.43,-2.27 2,-3.47 l 0.23,0.11 c -0.58,1.21 -1.26,2.39 -2.02,3.5 z m -46.51,-6.1 c -0.45,-1.27 -0.8,-2.58 -1.04,-3.91 l 0.25,-0.05 c 0.24,1.31 0.59,2.61 1.03,3.87 l -0.24,0.08 z m 49.61,-0.02 -0.24,-0.08 c 0.44,-1.26 0.79,-2.56 1.03,-3.87 l 0.25,0.05 c -0.24,1.32 -0.59,2.64 -1.04,3.91 z m -51.02,-6.7 c -0.05,-0.67 -0.08,-1.35 -0.08,-2.02 0,-0.67 0.03,-1.35 0.08,-2.02 l 0.25,0.02 c -0.05,0.67 -0.08,1.34 -0.08,2 0,0.66 0.03,1.34 0.08,2 z m 52.42,-0.02 -0.25,-0.02 c 0.05,-0.65 0.07,-1.32 0.07,-1.97 0,-0.68 -0.03,-1.36 -0.08,-2.03 l 0.25,-0.02 c 0.05,0.68 0.08,1.37 0.08,2.05 0,0.66 -0.02,1.33 -0.07,1.99 z m -51.8,-6.78 -0.25,-0.05 c 0.25,-1.32 0.6,-2.64 1.04,-3.91 l 0.24,0.08 c -0.44,1.26 -0.79,2.56 -1.03,3.87 z m 51.18,-0.03 c -0.24,-1.31 -0.59,-2.61 -1.04,-3.87 l 0.24,-0.08 c 0.45,1.27 0.8,2.58 1.05,3.9 z m -49.08,-6.43 -0.23,-0.11 c 0.58,-1.21 1.26,-2.39 2.03,-3.5 l 0.21,0.14 c -0.75,1.1 -1.43,2.27 -2.01,3.47 z m 46.97,-0.02 c -0.58,-1.2 -1.25,-2.36 -2.01,-3.46 l 0.21,-0.14 c 0.76,1.11 1.44,2.29 2.03,3.5 l -0.23,0.11 z m -43.25,-5.67 -0.19,-0.16 c 0.88,-1.02 1.84,-1.98 2.86,-2.86 l 0.16,0.19 c -1.01,0.87 -1.96,1.82 -2.83,2.83 z m 39.53,-0.02 c -0.87,-1.01 -1.82,-1.96 -2.83,-2.83 l 0.16,-0.19 c 1.02,0.88 1.98,1.84 2.86,2.86 z m -34.48,-4.52 -0.14,-0.21 c 1.11,-0.76 2.29,-1.44 3.5,-2.02 l 0.11,0.23 c -1.2,0.58 -2.36,1.25 -3.46,2.01 z m 29.42,-0.02 c -1.1,-0.75 -2.27,-1.43 -3.47,-2 l 0.11,-0.23 c 1.21,0.58 2.39,1.26 3.5,2.02 z m -23.36,-3.06 -0.08,-0.24 c 1.27,-0.45 2.58,-0.8 3.9,-1.05 l 0.05,0.25 c -1.31,0.24 -2.61,0.59 -3.87,1.04 z m 17.3,-0.01 c -1.26,-0.44 -2.56,-0.79 -3.87,-1.03 l 0.05,-0.25 c 1.32,0.25 2.64,0.6 3.91,1.04 l -0.08,0.24 z m -10.65,-1.39 -0.02,-0.25 c 0.67,-0.05 1.35,-0.08 2.02,-0.08 0.67,0.01 1.35,0.02 2.03,0.08 l -0.02,0.25 c -0.66,-0.05 -1.33,-0.07 -1.99,-0.07 h -0.02 c -0.67,0 -1.34,0.03 -2,0.08 z"
         style="fill:#1d1d1b"
         id="path61" />
      <path
         d="m 196.94,79.53 -0.12,-0.22 c 0.57,-0.33 1.14,-0.69 1.68,-1.06 l 0.14,0.21 c -0.55,0.38 -1.12,0.74 -1.7,1.07 z"
         style="fill:#1d1d1b"
         id="path62" />
    </g>
    <g
       id="g73">
      <path
         d="m 183.71,28.34 v 5 c 0,0 0.08,0 0.13,0 0.05,0 0.08,0 0.12,0 v -5 c 0,0 -0.08,0 -0.12,0 -0.04,0 -0.08,0 -0.13,0 z"
         style="fill:#1d1d1b"
         id="path63" />
      <path
         d="m 195.55,36.46 c 0.07,0.04 0.14,0.08 0.22,0.12 l 2.5,-4.33 c -0.07,-0.04 -0.14,-0.08 -0.22,-0.12 z"
         style="fill:#1d1d1b"
         id="path64" />
      <path
         d="m 172.12,77.54 c -0.07,-0.04 -0.14,-0.08 -0.22,-0.12 l -2.5,4.33 c 0.07,0.04 0.14,0.08 0.22,0.12 z"
         style="fill:#1d1d1b"
         id="path65" />
      <path
         d="m 208.58,42.57 -4.33,2.5 c 0.04,0.07 0.08,0.14 0.12,0.22 l 4.33,-2.5 c -0.04,-0.07 -0.08,-0.14 -0.12,-0.22 z"
         style="fill:#1d1d1b"
         id="path66" />
      <path
         d="m 163.41,68.93 c -0.04,-0.07 -0.08,-0.14 -0.12,-0.22 l -4.33,2.5 c 0.04,0.07 0.08,0.14 0.12,0.22 z"
         style="fill:#1d1d1b"
         id="path67" />
      <path
         d="m 160.17,57 c 0,0 0,-0.08 0,-0.13 h -5 c 0,0 0,0.08 0,0.13 0,0.05 0,0.08 0,0.12 h 5 c 0,0 0,-0.08 0,-0.12 z"
         style="fill:#1d1d1b"
         id="path68" />
      <path
         d="m 207.49,57 c 0,0 0,0.08 0,0.12 h 5 c 0,0 0,-0.08 0,-0.12 0,-0.04 0,-0.08 0,-0.13 h -5 c 0,0 0,0.08 0,0.13 z"
         style="fill:#1d1d1b"
         id="path69" />
      <path
         d="m 208.7,71.22 -4.33,-2.5 c -0.04,0.07 -0.08,0.15 -0.12,0.22 l 4.33,2.5 c 0.04,-0.07 0.08,-0.14 0.12,-0.22 z"
         style="fill:#1d1d1b"
         id="path70" />
      <path
         d="m 158.96,42.79 4.33,2.5 c 0.04,-0.07 0.08,-0.14 0.12,-0.22 l -4.33,-2.5 c -0.04,0.07 -0.08,0.14 -0.12,0.22 z"
         style="fill:#1d1d1b"
         id="path71" />
      <path
         d="m 195.77,77.42 c -0.07,0.04 -0.14,0.08 -0.22,0.12 l 2.5,4.33 c 0.07,-0.04 0.14,-0.08 0.22,-0.12 z"
         style="fill:#1d1d1b"
         id="path72" />
      <path
         d="m 171.9,36.58 c 0.07,-0.04 0.14,-0.08 0.22,-0.12 l -2.5,-4.33 c -0.07,0.04 -0.14,0.08 -0.22,0.12 z"
         style="fill:#1d1d1b"
         id="path73" />
    </g>
    <g
       id="g76">
      <g
         id="g74">
        <path
           d="m 175.97,180.14 c -4.69,-2.72 -7.84,-7.79 -7.84,-13.59 0,-8.67 7.03,-15.7 15.7,-15.7 8.67,0 15.7,7.03 15.7,15.7 0,5.82 -3.17,10.9 -7.87,13.61"
           style="fill:none;stroke:#1d1d1b;stroke-width:0.25px;stroke-miterlimit:10"
           id="path74" />
        <circle
           cx="183.83"
           cy="166.53999"
           r="15.7"
           style="fill:none"
           id="circle74" />
      </g>
      <line
         x1="183.83"
         y1="166.53999"
         x2="175.25"
         y2="181.41"
         style="fill:none;stroke:#1d1d1b;stroke-width:0.25px;stroke-miterlimit:10"
         id="line74" />
      <line
         x1="183.83"
         y1="166.53999"
         x2="192.41"
         y2="181.41"
         style="fill:none;stroke:#1d1d1b;stroke-width:0.25px;stroke-miterlimit:10"
         id="line75" />
      <line
         x1="183.83"
         y1="166.53999"
         x2="183.83"
         y2="148.81"
         style="fill:none;stroke:#1d1d1b;stroke-width:0.25px;stroke-miterlimit:10"
         id="line76" />
    </g>
    <g
       id="g79">
      <g
         id="g77">
        <path
           d="m 178.36,122.42 c -3.26,-1.89 -5.45,-5.42 -5.45,-9.46 0,-6.03 4.89,-10.93 10.93,-10.93 6.04,0 10.93,4.89 10.93,10.93 0,4.05 -2.2,7.58 -5.48,9.47"
           style="fill:none;stroke:#1d1d1b;stroke-width:0.25px;stroke-miterlimit:10"
           id="path76" />
        <circle
           cx="183.83"
           cy="112.96"
           r="10.92"
           style="fill:none"
           id="circle76" />
      </g>
      <line
         x1="183.83"
         y1="112.96"
         x2="177.86"
         y2="123.31"
         style="fill:none;stroke:#1d1d1b;stroke-width:0.25px;stroke-miterlimit:10"
         id="line77" />
      <line
         x1="183.83"
         y1="112.96"
         x2="189.8"
         y2="123.31"
         style="fill:none;stroke:#1d1d1b;stroke-width:0.25px;stroke-miterlimit:10"
         id="line78" />
      <line
         x1="183.83"
         y1="112.96"
         x2="194.55"
         y2="106.85"
         style="fill:none;stroke:#1d1d1b;stroke-width:0.25px;stroke-miterlimit:10"
         id="line79" />
    </g>
    <g
       id="g82">
      <g
         id="g80">
        <path
           d="m 220.88,45.89 c -3.26,-1.89 -5.45,-5.42 -5.45,-9.46 0,-6.03 4.89,-10.93 10.93,-10.93 6.04,0 10.93,4.89 10.93,10.93 0,4.05 -2.2,7.58 -5.48,9.47"
           style="fill:none;stroke:#1d1d1b;stroke-width:0.25px;stroke-miterlimit:10"
           id="path79" />
        <circle
           cx="226.35001"
           cy="36.43"
           r="10.92"
           style="fill:none"
           id="circle79" />
      </g>
      <line
         x1="226.35001"
         y1="36.43"
         x2="220.38"
         y2="46.77"
         style="fill:none;stroke:#1d1d1b;stroke-width:0.25px;stroke-miterlimit:10"
         id="line80" />
      <line
         x1="226.35001"
         y1="36.43"
         x2="232.32001"
         y2="46.77"
         style="fill:none;stroke:#1d1d1b;stroke-width:0.25px;stroke-miterlimit:10"
         id="line81" />
      <line
         x1="226.35001"
         y1="36.43"
         x2="226.35001"
         y2="24.09"
         style="fill:none;stroke:#1d1d1b;stroke-width:0.25px;stroke-miterlimit:10"
         id="line82" />
    </g>
    <g
       id="g85">
      <g
         id="g83">
        <path
           d="m 220.88,112.5 c -3.26,-1.89 -5.45,-5.42 -5.45,-9.46 0,-6.03 4.89,-10.93 10.93,-10.93 6.04,0 10.93,4.89 10.93,10.93 0,4.05 -2.2,7.58 -5.48,9.47"
           style="fill:none;stroke:#1d1d1b;stroke-width:0.25px;stroke-miterlimit:10"
           id="path82" />
        <circle
           cx="226.35001"
           cy="103.04"
           r="10.92"
           style="fill:none"
           id="circle82" />
      </g>
      <line
         x1="226.35001"
         y1="103.04"
         x2="220.38"
         y2="113.38"
         style="fill:none;stroke:#1d1d1b;stroke-width:0.25px;stroke-miterlimit:10"
         id="line83" />
      <line
         x1="226.35001"
         y1="103.04"
         x2="232.32001"
         y2="113.38"
         style="fill:none;stroke:#1d1d1b;stroke-width:0.25px;stroke-miterlimit:10"
         id="line84" />
      <line
         x1="226.35001"
         y1="103.04"
         x2="226.35001"
         y2="90.699997"
         style="fill:none;stroke:#1d1d1b;stroke-width:0.25px;stroke-miterlimit:10"
         id="line85" />
    </g>
    <g
       id="g88">
      <g
         id="g86">
        <path
           d="m 220.88,174.86 c -3.26,-1.89 -5.45,-5.42 -5.45,-9.46 0,-6.03 4.89,-10.93 10.93,-10.93 6.04,0 10.93,4.89 10.93,10.93 0,4.05 -2.2,7.58 -5.48,9.47"
           style="fill:none;stroke:#1d1d1b;stroke-width:0.25px;stroke-miterlimit:10"
           id="path85" />
        <circle
           cx="226.35001"
           cy="165.39999"
           r="10.92"
           style="fill:none"
           id="circle85" />
      </g>
      <line
         x1="226.35001"
         y1="165.39999"
         x2="220.38"
         y2="175.75"
         style="fill:none;stroke:#1d1d1b;stroke-width:0.25px;stroke-miterlimit:10"
         id="line86" />
      <line
         x1="226.35001"
         y1="165.39999"
         x2="232.32001"
         y2="175.75"
         style="fill:none;stroke:#1d1d1b;stroke-width:0.25px;stroke-miterlimit:10"
         id="line87" />
      <line
         x1="226.35001"
         y1="165.39999"
         x2="226.35001"
         y2="153.06"
         style="fill:none;stroke:#1d1d1b;stroke-width:0.25px;stroke-miterlimit:10"
         id="line88" />
    </g>
    <g
       id="g91">
      <g
         id="g89">
        <path
           d="m 42.3,266.17 c -3.26,-1.89 -5.45,-5.42 -5.45,-9.46 0,-6.03 4.89,-10.93 10.93,-10.93 6.04,0 10.93,4.89 10.93,10.93 0,4.05 -2.2,7.58 -5.48,9.47"
           style="fill:none;stroke:#1d1d1b;stroke-width:0.25px;stroke-miterlimit:10"
           id="path88" />
        <circle
           cx="47.77"
           cy="256.70999"
           r="10.92"
           style="fill:none"
           id="circle88" />
      </g>
      <line
         x1="47.77"
         y1="256.70999"
         x2="41.799999"
         y2="267.04999"
         style="fill:none;stroke:#1d1d1b;stroke-width:0.25px;stroke-miterlimit:10"
         id="line89" />
      <line
         x1="47.77"
         y1="256.70999"
         x2="53.740002"
         y2="267.04999"
         style="fill:none;stroke:#1d1d1b;stroke-width:0.25px;stroke-miterlimit:10"
         id="line90" />
      <line
         x1="47.77"
         y1="256.70999"
         x2="47.77"
         y2="244.37"
         style="fill:none;stroke:#1d1d1b;stroke-width:0.25px;stroke-miterlimit:10"
         id="line91" />
    </g>
    <g
       id="g94">
      <g
         id="g92">
        <path
           d="m 235.05,267.85 c -3.26,-1.89 -5.45,-5.42 -5.45,-9.46 0,-6.03 4.89,-10.93 10.93,-10.93 6.04,0 10.93,4.89 10.93,10.93 0,4.05 -2.2,7.58 -5.48,9.47"
           style="fill:none;stroke:#1d1d1b;stroke-width:0.25px;stroke-miterlimit:10"
           id="path91" />
        <circle
           cx="240.52"
           cy="258.39001"
           r="10.92"
           style="fill:none"
           id="circle91" />
      </g>
      <line
         x1="240.52"
         y1="258.39001"
         x2="234.55"
         y2="268.73001"
         style="fill:none;stroke:#1d1d1b;stroke-width:0.25px;stroke-miterlimit:10"
         id="line92" />
      <line
         x1="240.52"
         y1="258.39001"
         x2="246.5"
         y2="268.73001"
         style="fill:none;stroke:#1d1d1b;stroke-width:0.25px;stroke-miterlimit:10"
         id="line93" />
      <line
         x1="240.52"
         y1="258.39001"
         x2="240.52"
         y2="246.05"
         style="fill:none;stroke:#1d1d1b;stroke-width:0.25px;stroke-miterlimit:10"
         id="line94" />
    </g>
    <g
       id="g97">
      <g
         id="g95">
        <path
           d="m 138.68,280.88 c -3.26,-1.89 -5.45,-5.42 -5.45,-9.46 0,-6.03 4.89,-10.93 10.93,-10.93 6.04,0 10.93,4.89 10.93,10.93 0,4.05 -2.2,7.58 -5.48,9.47"
           style="fill:none;stroke:#1d1d1b;stroke-width:0.25px;stroke-miterlimit:10"
           id="path94" />
        <circle
           cx="144.14999"
           cy="271.42001"
           r="10.92"
           style="fill:none"
           id="circle94" />
      </g>
      <line
         x1="144.14999"
         y1="271.42001"
         x2="138.17"
         y2="281.76001"
         style="fill:none;stroke:#1d1d1b;stroke-width:0.25px;stroke-miterlimit:10"
         id="line95" />
      <line
         x1="144.14999"
         y1="271.42001"
         x2="150.12"
         y2="281.76001"
         style="fill:none;stroke:#1d1d1b;stroke-width:0.25px;stroke-miterlimit:10"
         id="line96" />
      <line
         x1="144.14999"
         y1="271.42001"
         x2="144.14999"
         y2="259.07999"
         style="fill:none;stroke:#1d1d1b;stroke-width:0.25px;stroke-miterlimit:10"
         id="line97" />
    </g>
    <g
       id="g100">
      <g
         id="g98">
        <path
           d="m 138.68,335.46 c -3.26,-1.89 -5.45,-5.42 -5.45,-9.46 0,-6.03 4.89,-10.93 10.93,-10.93 6.04,0 10.93,4.89 10.93,10.93 0,4.05 -2.2,7.58 -5.48,9.47"
           style="fill:none;stroke:#1d1d1b;stroke-width:0.25px;stroke-miterlimit:10"
           id="path97" />
        <circle
           cx="144.14999"
           cy="325.98999"
           r="10.92"
           style="fill:none"
           id="circle97" />
      </g>
      <line
         x1="144.14999"
         y1="325.98999"
         x2="138.17"
         y2="336.34"
         style="fill:none;stroke:#1d1d1b;stroke-width:0.25px;stroke-miterlimit:10"
         id="line98" />
      <line
         x1="144.14999"
         y1="325.98999"
         x2="150.12"
         y2="336.34"
         style="fill:none;stroke:#1d1d1b;stroke-width:0.25px;stroke-miterlimit:10"
         id="line99" />
      <line
         x1="144.14999"
         y1="325.98999"
         x2="144.14999"
         y2="313.66"
         style="fill:none;stroke:#1d1d1b;stroke-width:0.25px;stroke-miterlimit:10"
         id="line100" />
    </g>
    <g
       id="g102">
      <path
         d="m 91.3,79.5 c -0.58,-0.33 -1.15,-0.7 -1.7,-1.07 l 0.14,-0.21 c 0.54,0.37 1.11,0.73 1.68,1.06 z"
         style="fill:#1d1d1b"
         id="path100" />
      <path
         d="m 87.35,76.7 c -1.02,-0.88 -1.98,-1.84 -2.86,-2.86 l 0.19,-0.16 c 0.87,1.01 1.82,1.97 2.83,2.83 z m 34.24,-0.01 -0.16,-0.19 c 1.01,-0.87 1.96,-1.82 2.83,-2.84 l 0.19,0.16 c -0.87,1.02 -1.83,1.98 -2.86,2.86 z M 82.77,71.6 c -0.76,-1.11 -1.44,-2.29 -2.02,-3.5 l 0.23,-0.11 c 0.58,1.2 1.25,2.37 2,3.47 z m 43.4,-0.02 -0.21,-0.14 c 0.75,-1.1 1.43,-2.27 2,-3.47 l 0.23,0.11 c -0.58,1.21 -1.26,2.39 -2.02,3.5 z m -46.51,-6.1 c -0.45,-1.27 -0.8,-2.58 -1.04,-3.91 l 0.25,-0.05 c 0.24,1.31 0.59,2.61 1.03,3.87 l -0.24,0.08 z m 49.61,-0.02 -0.24,-0.08 c 0.44,-1.26 0.79,-2.56 1.03,-3.87 l 0.25,0.05 c -0.24,1.32 -0.59,2.64 -1.04,3.91 z m -51.02,-6.7 c -0.05,-0.67 -0.08,-1.35 -0.08,-2.02 0,-0.67 0.03,-1.35 0.08,-2.02 l 0.25,0.02 c -0.05,0.67 -0.08,1.34 -0.08,2 0,0.66 0.03,1.34 0.08,2 z m 52.42,-0.02 -0.25,-0.02 c 0.05,-0.65 0.07,-1.32 0.07,-1.97 0,-0.68 -0.03,-1.36 -0.08,-2.03 l 0.25,-0.02 c 0.05,0.68 0.08,1.37 0.08,2.05 0,0.66 -0.02,1.33 -0.07,1.99 z m -51.8,-6.78 -0.25,-0.05 c 0.25,-1.32 0.6,-2.64 1.04,-3.91 l 0.24,0.08 c -0.44,1.26 -0.79,2.56 -1.03,3.87 z m 51.18,-0.03 c -0.24,-1.31 -0.59,-2.61 -1.04,-3.87 l 0.24,-0.08 c 0.45,1.27 0.8,2.58 1.05,3.9 z M 80.97,45.5 80.74,45.39 C 81.32,44.18 82,43 82.77,41.89 l 0.21,0.14 c -0.75,1.1 -1.43,2.27 -2.01,3.47 z m 46.97,-0.02 c -0.58,-1.2 -1.25,-2.36 -2.01,-3.46 l 0.21,-0.14 c 0.76,1.11 1.44,2.29 2.03,3.5 l -0.23,0.11 z M 84.69,39.81 84.5,39.65 c 0.88,-1.02 1.84,-1.98 2.86,-2.86 l 0.16,0.19 c -1.01,0.87 -1.96,1.82 -2.83,2.83 z m 39.53,-0.02 c -0.87,-1.01 -1.82,-1.96 -2.83,-2.83 l 0.16,-0.19 c 1.02,0.88 1.98,1.84 2.86,2.86 z M 89.74,35.27 89.6,35.06 c 1.11,-0.76 2.29,-1.44 3.5,-2.02 l 0.11,0.23 c -1.2,0.58 -2.36,1.25 -3.46,2.01 z m 29.42,-0.02 c -1.1,-0.75 -2.27,-1.43 -3.47,-2 l 0.11,-0.23 c 1.21,0.58 2.39,1.26 3.5,2.02 z M 95.8,32.19 95.72,31.95 c 1.27,-0.45 2.58,-0.8 3.9,-1.05 l 0.05,0.25 c -1.31,0.24 -2.61,0.59 -3.87,1.04 z m 17.3,-0.01 c -1.26,-0.44 -2.56,-0.79 -3.87,-1.03 l 0.05,-0.25 c 1.32,0.25 2.64,0.6 3.91,1.04 l -0.08,0.24 z m -10.65,-1.39 -0.02,-0.25 c 0.67,-0.05 1.35,-0.09 2.04,-0.08 0.67,0 1.34,0.03 2.01,0.08 l -0.02,0.25 c -0.66,-0.05 -1.33,-0.07 -1.99,-0.07 -0.66,0 -1.35,0.03 -2.02,0.08 z"
         style="fill:#1d1d1b"
         id="path101" />
      <path
         d="m 117.57,79.53 -0.12,-0.22 c 0.57,-0.33 1.14,-0.69 1.69,-1.06 l 0.14,0.21 c -0.55,0.38 -1.12,0.74 -1.7,1.07 z"
         style="fill:#1d1d1b"
         id="path102" />
    </g>
    <g
       id="g111">
      <path
         d="m 104.34,28.34 v 5 c 0,0 0.08,0 0.13,0 0.05,0 0.08,0 0.12,0 v -5 c 0,0 -0.08,0 -0.12,0 -0.04,0 -0.08,0 -0.13,0 z"
         style="fill:#1d1d1b"
         id="path103" />
      <path
         d="m 116.18,36.46 c 0.07,0.04 0.14,0.08 0.22,0.12 l 2.5,-4.33 c -0.07,-0.04 -0.14,-0.08 -0.22,-0.12 z"
         style="fill:#1d1d1b"
         id="path104" />
      <path
         d="M 92.75,77.54 C 92.68,77.5 92.61,77.46 92.53,77.42 l -2.5,4.33 c 0.07,0.04 0.14,0.08 0.22,0.12 z"
         style="fill:#1d1d1b"
         id="path105" />
      <path
         d="m 129.21,42.57 -4.34,2.48 c 0.04,0.07 0.08,0.14 0.12,0.22 l 4.34,-2.48 c -0.04,-0.07 -0.08,-0.14 -0.12,-0.22 z"
         style="fill:#1d1d1b"
         id="path106" />
      <path
         d="m 128.12,57 c 0,0 0,0.05 0,0.07 l 5,0.04 c 0,0 0,-0.08 0,-0.11 0,-0.05 0,-0.09 0,-0.14 l -5,-0.04 c 0,0.06 0,0.12 0,0.18 z"
         style="fill:#1d1d1b"
         id="path107" />
      <path
         d="m 125.03,68.68 c -0.04,0.07 -0.08,0.14 -0.12,0.22 l 4.31,2.53 c 0.04,-0.07 0.08,-0.14 0.12,-0.22 z"
         style="fill:#1d1d1b"
         id="path108" />
      <path
         d="m 116.39,77.43 c -0.07,0.04 -0.14,0.08 -0.22,0.12 l 2.51,4.32 c 0.07,-0.04 0.14,-0.08 0.22,-0.12 z"
         style="fill:#1d1d1b"
         id="path109" />
      <path
         d="m 127.4,62.8 c -0.02,0.08 -0.04,0.16 -0.06,0.24 l 4.83,1.3 c 0.02,-0.08 0.05,-0.16 0.07,-0.24 l -4.83,-1.3 z"
         style="fill:#1d1d1b"
         id="path110" />
      <path
         d="M 125.08,76.88 121.5,73.4 c -0.06,0.06 -0.11,0.12 -0.17,0.18 l 3.58,3.48 c 0.06,-0.06 0.11,-0.12 0.17,-0.18 z"
         style="fill:#1d1d1b"
         id="path111" />
    </g>
  </g>
  <g
     id="text_Kopie">
    <g
       id="g119">
      <path
         d="m 123.71,218.67 v 4 h 1.37 v 0.67 h -2.09 v -4.67 h 0.71 z"
         id="path112" />
      <path
         d="m 126.78,218.67 c 0.29,0 0.69,0.03 1.02,0.25 0.39,0.26 0.58,0.71 0.58,1.13 0,0.27 -0.07,0.69 -0.46,1.02 -0.37,0.32 -0.8,0.36 -1.14,0.36 h -0.32 v 1.9 h -0.71 v -4.67 h 1.03 z m -0.32,2.12 h 0.32 c 0.62,0 0.91,-0.3 0.91,-0.74 0,-0.26 -0.1,-0.72 -0.92,-0.72 h -0.31 z"
         id="path113" />
      <path
         d="m 135.64,218.67 c 0.6,0 0.98,0.08 1.29,0.36 0.25,0.24 0.37,0.54 0.37,0.92 0,0.18 -0.03,0.37 -0.14,0.55 -0.1,0.18 -0.25,0.27 -0.35,0.32 0.08,0.02 0.37,0.1 0.6,0.34 0.25,0.27 0.31,0.59 0.31,0.88 0,0.34 -0.08,0.6 -0.31,0.84 -0.37,0.39 -0.95,0.46 -1.31,0.46 h -1.17 v -4.67 z m 0.01,2.02 h 0.22 c 0.18,0 0.41,-0.02 0.58,-0.18 0.16,-0.15 0.18,-0.37 0.18,-0.53 0,-0.14 -0.02,-0.31 -0.17,-0.45 -0.16,-0.15 -0.36,-0.17 -0.57,-0.17 h -0.25 v 1.34 z m 0,1.98 h 0.43 c 0.2,0 0.53,-0.04 0.71,-0.18 0.14,-0.11 0.23,-0.31 0.23,-0.52 0,-0.19 -0.07,-0.37 -0.19,-0.49 -0.2,-0.19 -0.48,-0.21 -0.74,-0.21 h -0.45 v 1.4 z"
         id="path114" />
      <path
         d="m 139.64,218.67 c 0.29,0 0.69,0.03 1.02,0.25 0.39,0.26 0.58,0.71 0.58,1.13 0,0.27 -0.07,0.69 -0.46,1.02 -0.37,0.32 -0.8,0.36 -1.14,0.36 h -0.32 v 1.9 h -0.71 v -4.67 h 1.03 z m -0.31,2.12 h 0.32 c 0.62,0 0.91,-0.3 0.91,-0.74 0,-0.26 -0.1,-0.72 -0.92,-0.72 h -0.31 z"
         id="path115" />
      <path
         d="m 147.58,220.52 h 2 v -1.85 h 0.71 v 4.67 h -0.71 v -2.15 h -2 v 2.15 h -0.71 v -4.67 h 0.71 z"
         id="path116" />
      <path
         d="m 152.45,218.67 c 0.29,0 0.69,0.03 1.02,0.25 0.39,0.26 0.58,0.71 0.58,1.13 0,0.27 -0.07,0.69 -0.46,1.02 -0.37,0.32 -0.8,0.36 -1.14,0.36 h -0.32 v 1.9 h -0.71 v -4.67 h 1.03 z m -0.32,2.12 h 0.32 c 0.62,0 0.91,-0.3 0.91,-0.74 0,-0.26 -0.11,-0.72 -0.92,-0.72 h -0.32 v 1.46 z"
         id="path117" />
      <path
         d="m 157.85,223.35 v -4.99 l 3.39,3.55 v -3.24 h 0.71 v 4.96 l -3.39,-3.55 v 3.26 h -0.71 z"
         id="path118" />
      <path
         d="m 167.71,221.01 c 0,1.37 -1.03,2.42 -2.43,2.42 -1.4,0 -2.43,-1.05 -2.43,-2.42 0,-1.37 1.03,-2.42 2.43,-2.42 1.4,0 2.43,1.05 2.43,2.42 z m -0.72,0 c 0,-1.04 -0.71,-1.77 -1.72,-1.77 -1.01,0 -1.72,0.73 -1.72,1.77 0,1.04 0.71,1.76 1.72,1.76 1.01,0 1.72,-0.73 1.72,-1.76 z"
         id="path119" />
    </g>
    <g
       id="g124">
      <path
         d="m 97.92,81.11 c 0.29,0 0.69,0.03 1.02,0.25 0.39,0.26 0.58,0.71 0.58,1.13 0,0.27 -0.07,0.69 -0.46,1.02 -0.37,0.31 -0.8,0.36 -1.14,0.36 H 97.6 v 1.9 H 96.89 V 81.1 h 1.03 z m -0.32,2.12 h 0.32 c 0.62,0 0.91,-0.3 0.91,-0.74 0,-0.26 -0.1,-0.72 -0.92,-0.72 H 97.6 Z"
         id="path120" />
      <path
         d="m 100.96,81.11 v 4.67 h -0.71 v -4.67 z"
         id="path121" />
      <path
         d="m 103.38,81.79 v 4 h -0.71 v -4 h -1.07 v -0.67 h 2.86 v 0.67 h -1.07 z"
         id="path122" />
      <path
         d="m 108.4,82.21 c -0.52,-0.47 -1,-0.52 -1.27,-0.52 -1.02,0 -1.7,0.75 -1.7,1.78 0,1.03 0.71,1.75 1.71,1.75 0.56,0 0.99,-0.29 1.26,-0.54 v 0.85 c -0.47,0.28 -0.96,0.35 -1.28,0.35 -0.85,0 -1.38,-0.38 -1.65,-0.64 -0.55,-0.51 -0.75,-1.11 -0.75,-1.77 0,-0.86 0.36,-1.46 0.75,-1.83 0.48,-0.46 1.04,-0.61 1.69,-0.61 0.43,0 0.84,0.08 1.25,0.34 v 0.84 z"
         id="path123" />
      <path
         d="m 109.99,82.96 h 2 v -1.85 h 0.71 v 4.67 h -0.71 v -2.15 h -2 v 2.15 h -0.71 v -4.67 h 0.71 z"
         id="path124" />
    </g>
    <g
       id="g126">
      <path
         d="m 141.87,69.79 1.81,-1.86 h 0.94 l -2.11,2.12 2.12,2.56 h -0.95 l -1.67,-2.07 -0.14,0.14 v 1.93 h -0.71 v -4.67 h 0.71 v 1.86 z"
         id="path125" />
      <path
         d="m 146.56,68.6 v 4 h -0.71 v -4 h -1.07 v -0.67 h 2.86 v 0.67 h -1.07 z"
         id="path126" />
    </g>
    <g
       id="g130">
      <path
         d="m 55.18,52.84 v 4 h -0.71 v -4 H 53.4 v -0.67 h 2.86 v 0.67 h -1.07 z"
         id="path127" />
      <path
         d="m 57.71,52.17 c 0.57,0 0.93,0.07 1.23,0.27 0.51,0.34 0.55,0.9 0.55,1.1 0,0.67 -0.41,1.16 -1.04,1.3 l 1.46,2 h -0.86 l -1.34,-1.91 h -0.13 v 1.91 h -0.71 v -4.67 h 0.83 z m -0.11,2.15 h 0.22 c 0.2,0 0.99,-0.02 0.99,-0.76 0,-0.66 -0.62,-0.72 -0.97,-0.72 h -0.25 v 1.48 z"
         id="path128" />
      <path
         d="m 64.08,53.26 c -0.52,-0.47 -1,-0.52 -1.27,-0.52 -1.02,0 -1.7,0.75 -1.7,1.78 0,1.03 0.71,1.75 1.71,1.75 0.56,0 0.99,-0.29 1.26,-0.54 v 0.85 c -0.47,0.28 -0.96,0.35 -1.28,0.35 -0.85,0 -1.38,-0.38 -1.65,-0.64 -0.55,-0.51 -0.75,-1.11 -0.75,-1.77 0,-0.86 0.36,-1.46 0.75,-1.83 0.48,-0.46 1.04,-0.61 1.69,-0.61 0.43,0 0.84,0.08 1.25,0.34 v 0.84 z"
         id="path129" />
      <path
         d="m 65.67,54.03 1.81,-1.86 h 0.94 l -2.11,2.12 2.12,2.56 h -0.95 l -1.67,-2.07 -0.14,0.14 v 1.93 h -0.71 v -4.67 h 0.71 v 1.86 z"
         id="path130" />
    </g>
    <g
       id="g133">
      <path
         d="m 138.5,154.22 1.3,3.26 1.3,-3.26 h 0.77 l -2.07,4.97 -2.07,-4.97 z"
         id="path131" />
      <path
         d="m 146.89,156.56 c 0,1.37 -1.03,2.42 -2.43,2.42 -1.4,0 -2.43,-1.05 -2.43,-2.42 0,-1.37 1.03,-2.42 2.43,-2.42 1.4,0 2.43,1.05 2.43,2.42 z m -0.72,0 c 0,-1.04 -0.71,-1.77 -1.72,-1.77 -1.01,0 -1.72,0.73 -1.72,1.77 0,1.04 0.71,1.76 1.72,1.76 1.01,0 1.72,-0.73 1.72,-1.76 z"
         id="path132" />
      <path
         d="m 148.62,156.45 -1.29,-2.23 h 0.8 l 0.91,1.58 0.93,-1.58 h 0.8 l -1.34,2.23 1.41,2.44 h -0.8 l -1.02,-1.79 -1.06,1.79 h -0.8 l 1.47,-2.44 z"
         id="path133" />
    </g>
    <g
       id="g137">
      <path
         d="m 99.95,128.43 h -1.62 v 1.18 h 1.57 v 0.67 h -1.57 v 2.14 h -0.71 v -4.67 h 2.34 v 0.67 z"
         id="path134" />
      <path
         d="m 101.48,127.76 v 4.67 h -0.71 v -4.67 z"
         id="path135" />
      <path
         d="m 102.6,132.43 v -4.99 l 3.39,3.55 v -3.24 h 0.71 v 4.96 l -3.39,-3.55 v 3.26 h -0.71 z"
         id="path136" />
      <path
         d="m 110.4,128.43 h -1.86 v 1.18 h 1.81 v 0.67 h -1.81 v 1.47 h 1.86 v 0.67 h -2.58 v -4.67 h 2.58 v 0.67 z"
         id="path137" />
    </g>
    <g
       id="g143">
      <path
         d="m 94.83,186.25 c -0.04,-0.11 -0.1,-0.2 -0.21,-0.29 -0.15,-0.12 -0.3,-0.17 -0.5,-0.17 -0.43,0 -0.66,0.26 -0.66,0.56 0,0.14 0.05,0.38 0.5,0.57 l 0.47,0.19 c 0.86,0.35 1.1,0.84 1.1,1.37 0,0.89 -0.63,1.5 -1.51,1.5 -0.54,0 -0.86,-0.2 -1.1,-0.47 -0.25,-0.28 -0.36,-0.59 -0.39,-0.91 l 0.71,-0.15 c 0,0.23 0.08,0.45 0.2,0.6 0.13,0.17 0.33,0.28 0.61,0.28 0.43,0 0.77,-0.32 0.77,-0.78 0,-0.46 -0.36,-0.67 -0.67,-0.8 l -0.45,-0.19 c -0.39,-0.16 -0.95,-0.48 -0.95,-1.18 0,-0.63 0.49,-1.23 1.37,-1.23 0.5,0 0.79,0.19 0.94,0.32 0.13,0.11 0.26,0.27 0.36,0.47 l -0.57,0.34 z"
         id="path138" />
      <path
         d="m 97.45,185.21 c 0.29,0 0.69,0.03 1.02,0.25 0.39,0.26 0.58,0.71 0.58,1.13 0,0.27 -0.07,0.69 -0.46,1.02 -0.37,0.32 -0.8,0.36 -1.14,0.36 h -0.32 v 1.9 h -0.71 v -4.67 h 1.03 z m -0.31,2.11 h 0.32 c 0.62,0 0.91,-0.3 0.91,-0.74 0,-0.26 -0.1,-0.72 -0.92,-0.72 h -0.31 z"
         id="path139" />
      <path
         d="m 100.62,185.21 c 0.57,0 0.93,0.07 1.23,0.27 0.51,0.34 0.55,0.9 0.55,1.1 0,0.67 -0.41,1.16 -1.04,1.3 l 1.46,2 h -0.86 l -1.34,-1.91 h -0.13 v 1.91 h -0.71 v -4.67 h 0.83 z m -0.12,2.14 h 0.22 c 0.2,0 0.99,-0.02 0.99,-0.76 0,-0.66 -0.62,-0.72 -0.97,-0.72 h -0.25 v 1.49 z"
         id="path140" />
      <path
         d="m 106.1,185.88 h -1.86 v 1.18 h 1.81 v 0.67 h -1.81 v 1.47 h 1.86 v 0.67 h -2.58 v -4.67 h 2.58 v 0.67 z"
         id="path141" />
      <path
         d="m 109.77,188.75 h -2 l -0.51,1.13 h -0.77 l 2.33,-4.95 2.21,4.95 h -0.77 z m -0.29,-0.67 -0.69,-1.58 -0.72,1.58 z"
         id="path142" />
      <path
         d="m 112.6,185.21 c 0.65,0 1.22,0.07 1.74,0.46 0.57,0.43 0.9,1.11 0.9,1.88 0,0.77 -0.32,1.45 -0.94,1.88 -0.55,0.38 -1.06,0.45 -1.71,0.45 h -0.97 v -4.67 z m -0.27,4 h 0.31 c 0.35,0 0.83,-0.03 1.24,-0.33 0.32,-0.25 0.64,-0.69 0.64,-1.33 0,-0.64 -0.29,-1.1 -0.63,-1.34 -0.41,-0.29 -0.9,-0.32 -1.25,-0.32 h -0.31 v 3.33 z"
         id="path143" />
    </g>
    <g
       id="g148">
      <path
         d="m 39.16,236.8 c 0.65,0 1.22,0.07 1.74,0.46 0.57,0.43 0.9,1.11 0.9,1.88 0,0.77 -0.32,1.45 -0.94,1.88 -0.55,0.39 -1.06,0.45 -1.71,0.45 h -0.97 v -4.67 z m -0.27,4 h 0.31 c 0.35,0 0.83,-0.03 1.24,-0.33 0.32,-0.25 0.64,-0.69 0.64,-1.33 0,-0.64 -0.29,-1.1 -0.63,-1.34 -0.41,-0.29 -0.9,-0.32 -1.25,-0.32 h -0.31 v 3.33 z"
         id="path144" />
      <path
         d="M 45.26,237.47 H 43.4 v 1.18 h 1.81 v 0.67 H 43.4 v 1.47 h 1.86 v 0.67 h -2.58 v -4.67 h 2.58 v 0.67 z"
         id="path145" />
      <path
         d="m 49.64,237.89 c -0.52,-0.47 -1,-0.52 -1.27,-0.52 -1.02,0 -1.7,0.75 -1.7,1.78 0,1.03 0.71,1.75 1.71,1.75 0.56,0 0.99,-0.29 1.26,-0.54 v 0.85 c -0.47,0.28 -0.96,0.35 -1.28,0.35 -0.85,0 -1.38,-0.38 -1.65,-0.64 -0.55,-0.51 -0.75,-1.11 -0.75,-1.77 0,-0.86 0.36,-1.46 0.75,-1.83 0.48,-0.46 1.04,-0.61 1.69,-0.61 0.43,0 0.84,0.08 1.25,0.34 v 0.84 z"
         id="path146" />
      <path
         d="m 53.2,240.34 h -2 l -0.51,1.13 h -0.77 l 2.33,-4.94 2.21,4.94 h -0.77 z m -0.29,-0.67 -0.69,-1.58 -0.72,1.58 z"
         id="path147" />
      <path
         d="m 55.6,239.46 -1.53,-2.65 h 0.81 l 1.08,1.87 1.08,-1.87 h 0.81 l -1.53,2.65 v 2.02 h -0.71 v -2.02 z"
         id="path148" />
    </g>
    <g
       id="g154">
      <path
         d="m 92.54,264.14 c 0.65,0 1.22,0.07 1.74,0.46 0.57,0.43 0.9,1.11 0.9,1.88 0,0.77 -0.32,1.45 -0.94,1.88 -0.55,0.38 -1.06,0.45 -1.71,0.45 h -0.97 v -4.67 z m -0.27,4 h 0.31 c 0.35,0 0.83,-0.03 1.24,-0.33 0.32,-0.25 0.64,-0.69 0.64,-1.33 0,-0.64 -0.29,-1.1 -0.63,-1.34 -0.41,-0.29 -0.9,-0.32 -1.25,-0.32 h -0.31 v 3.33 z"
         id="path149" />
      <path
         d="m 96.9,264.14 c 0.57,0 0.93,0.07 1.23,0.27 0.51,0.34 0.55,0.9 0.55,1.1 0,0.67 -0.41,1.16 -1.04,1.3 l 1.46,2 H 98.24 L 96.9,266.9 h -0.13 v 1.91 h -0.71 v -4.67 h 0.83 z m -0.12,2.14 H 97 c 0.2,0 0.99,-0.02 0.99,-0.76 0,-0.66 -0.62,-0.72 -0.97,-0.72 h -0.25 v 1.49 z"
         id="path150" />
      <path
         d="m 100.78,266.79 -1.53,-2.65 h 0.81 l 1.08,1.87 1.08,-1.87 h 0.81 l -1.53,2.65 v 2.02 h -0.71 v -2.02 z"
         id="path151" />
      <path
         d="m 105.45,264.14 1.23,3.12 1.26,-3.35 1.22,3.35 1.27,-3.12 h 0.77 l -2.09,4.97 -1.22,-3.31 -1.23,3.31 -1.99,-4.97 h 0.77 z"
         id="path152" />
      <path
         d="m 114.37,264.81 h -1.86 v 1.18 h 1.81 v 0.67 h -1.81 v 1.47 h 1.86 v 0.67 h -2.58 v -4.67 h 2.58 v 0.67 z"
         id="path153" />
      <path
         d="m 116.59,264.81 v 4 h -0.71 v -4 h -1.07 v -0.67 h 2.86 v 0.67 h -1.07 z"
         id="path154" />
    </g>
    <g
       id="g162">
      <path
         d="m 15.35,342.28 v 4.67 h -0.71 v -4.67 z"
         id="path155" />
      <path
         d="m 16.47,346.95 v -4.99 l 3.39,3.55 v -3.24 h 0.71 v 4.96 l -3.39,-3.55 v 3.26 h -0.71 z"
         id="path156" />
      <path
         d="m 22.35,348.19 c -0.22,-0.48 -0.36,-0.92 -0.48,-1.42 -0.15,-0.66 -0.18,-1.16 -0.18,-1.79 0,-0.63 0.04,-1.17 0.2,-1.86 0.11,-0.5 0.25,-0.91 0.46,-1.37 l 0.63,0.25 c -0.18,0.41 -0.34,0.88 -0.42,1.27 -0.11,0.5 -0.17,1.12 -0.17,1.71 0,0.76 0.08,1.3 0.16,1.65 0.09,0.39 0.25,0.89 0.43,1.3 l -0.63,0.25 z"
         id="path157" />
      <path
         d="m 23.82,346.95 0.98,-5.02 1.62,3.63 1.64,-3.63 0.88,5.02 h -0.73 l -0.48,-2.82 -1.36,3.03 -1.34,-3.04 -0.49,2.82 h -0.73 z"
         id="path158" />
      <path
         d="m 34.56,344.62 c 0,1.37 -1.03,2.42 -2.43,2.42 -1.4,0 -2.43,-1.05 -2.43,-2.42 0,-1.37 1.03,-2.42 2.43,-2.42 1.4,0 2.43,1.05 2.43,2.42 z m -0.72,0 c 0,-1.04 -0.71,-1.77 -1.72,-1.77 -1.01,0 -1.72,0.73 -1.72,1.77 0,1.04 0.71,1.76 1.72,1.76 1.01,0 1.72,-0.73 1.72,-1.76 z"
         id="path159" />
      <path
         d="m 35.45,346.95 v -4.99 l 3.39,3.55 v -3.24 h 0.71 v 4.96 l -3.39,-3.55 v 3.26 h -0.71 z"
         id="path160" />
      <path
         d="m 45.31,344.62 c 0,1.37 -1.03,2.42 -2.43,2.42 -1.4,0 -2.43,-1.05 -2.43,-2.42 0,-1.37 1.03,-2.42 2.43,-2.42 1.4,0 2.43,1.05 2.43,2.42 z m -0.72,0 c 0,-1.04 -0.71,-1.77 -1.72,-1.77 -1.01,0 -1.72,0.73 -1.72,1.77 0,1.04 0.71,1.76 1.72,1.76 1.01,0 1.72,-0.73 1.72,-1.76 z"
         id="path161" />
      <path
         d="m 46.06,347.94 c 0.17,-0.41 0.34,-0.91 0.43,-1.3 0.08,-0.35 0.16,-0.89 0.16,-1.65 0,-0.59 -0.06,-1.21 -0.17,-1.71 -0.08,-0.39 -0.24,-0.85 -0.42,-1.27 l 0.63,-0.25 c 0.22,0.46 0.35,0.86 0.46,1.37 0.15,0.69 0.2,1.21 0.2,1.86 0,0.65 -0.04,1.13 -0.18,1.79 -0.11,0.5 -0.25,0.94 -0.48,1.42 l -0.63,-0.25 z"
         id="path162" />
    </g>
    <g
       id="g169">
      <path
         d="m 209.06,342.28 v 4 h 1.37 v 0.67 h -2.09 v -4.67 h 0.71 z"
         id="path163" />
      <path
         d="m 213.39,348.19 c -0.22,-0.48 -0.36,-0.92 -0.48,-1.42 -0.15,-0.66 -0.18,-1.16 -0.18,-1.79 0,-0.63 0.04,-1.17 0.2,-1.86 0.11,-0.5 0.25,-0.91 0.46,-1.37 l 0.63,0.25 c -0.18,0.41 -0.34,0.88 -0.42,1.27 -0.11,0.5 -0.17,1.12 -0.17,1.71 0,0.76 0.08,1.3 0.16,1.65 0.09,0.39 0.25,0.89 0.43,1.3 l -0.63,0.25 z"
         id="path164" />
      <path
         d="m 214.86,346.95 0.98,-5.02 1.62,3.63 1.64,-3.63 0.88,5.02 h -0.73 l -0.48,-2.82 -1.36,3.03 -1.34,-3.04 -0.49,2.82 h -0.73 z"
         id="path165" />
      <path
         d="m 225.6,344.62 c 0,1.37 -1.03,2.42 -2.43,2.42 -1.4,0 -2.43,-1.05 -2.43,-2.42 0,-1.37 1.03,-2.42 2.43,-2.42 1.4,0 2.43,1.05 2.43,2.42 z m -0.71,0 c 0,-1.04 -0.71,-1.77 -1.72,-1.77 -1.01,0 -1.72,0.73 -1.72,1.77 0,1.04 0.71,1.76 1.72,1.76 1.01,0 1.72,-0.73 1.72,-1.76 z"
         id="path166" />
      <path
         d="m 226.5,346.95 v -4.99 l 3.39,3.55 v -3.24 h 0.71 v 4.96 l -3.39,-3.55 v 3.26 h -0.71 z"
         id="path167" />
      <path
         d="m 236.36,344.62 c 0,1.37 -1.03,2.42 -2.43,2.42 -1.4,0 -2.43,-1.05 -2.43,-2.42 0,-1.37 1.03,-2.42 2.43,-2.42 1.4,0 2.43,1.05 2.43,2.42 z m -0.72,0 c 0,-1.04 -0.71,-1.77 -1.72,-1.77 -1.01,0 -1.72,0.73 -1.72,1.77 0,1.04 0.71,1.76 1.72,1.76 1.01,0 1.72,-0.73 1.72,-1.76 z"
         id="path168" />
      <path
         d="m 237.11,347.94 c 0.17,-0.41 0.34,-0.91 0.43,-1.3 0.08,-0.35 0.16,-0.89 0.16,-1.65 0,-0.59 -0.06,-1.21 -0.17,-1.71 -0.08,-0.39 -0.24,-0.85 -0.42,-1.27 l 0.63,-0.25 c 0.22,0.46 0.35,0.86 0.46,1.37 0.15,0.69 0.2,1.21 0.2,1.86 0,0.65 -0.04,1.13 -0.18,1.79 -0.11,0.5 -0.25,0.94 -0.48,1.42 l -0.63,-0.25 z"
         id="path169" />
    </g>
    <path
       d="m 256.25,342.28 c 0.57,0 0.93,0.07 1.23,0.27 0.51,0.34 0.55,0.9 0.55,1.1 0,0.67 -0.41,1.16 -1.04,1.3 l 1.46,2 h -0.86 l -1.34,-1.91 h -0.13 v 1.91 h -0.71 v -4.67 h 0.83 z m -0.12,2.14 h 0.22 c 0.2,0 0.99,-0.02 0.99,-0.76 0,-0.66 -0.62,-0.72 -0.97,-0.72 h -0.25 v 1.49 z"
       id="path170" />
    <g
       id="g175">
      <path
         d="m 57.99,342.95 h -1.86 v 1.18 h 1.81 v 0.67 h -1.81 v 1.47 h 1.86 v 0.67 h -2.58 v -4.67 h 2.58 v 0.67 z"
         id="path171" />
      <path
         d="m 59.89,344.51 -1.29,-2.23 h 0.8 l 0.91,1.58 0.93,-1.58 h 0.8 l -1.34,2.23 1.41,2.44 h -0.8 l -1.02,-1.79 -1.06,1.79 h -0.8 l 1.47,-2.44 z"
         id="path172" />
      <path
         d="m 64.03,342.95 v 4 h -0.71 v -4 h -1.07 v -0.67 h 2.86 v 0.67 h -1.07 z"
         id="path173" />
      <path
         d="m 69.7,342.95 h -1.62 v 1.18 h 1.57 v 0.67 h -1.57 v 2.14 h -0.71 v -4.67 h 2.34 v 0.67 z"
         id="path174" />
      <path
         d="m 71.21,342.28 c 0.6,0 0.98,0.08 1.29,0.36 0.25,0.24 0.37,0.54 0.37,0.92 0,0.18 -0.03,0.37 -0.14,0.55 -0.1,0.18 -0.25,0.27 -0.35,0.32 0.08,0.02 0.37,0.1 0.6,0.34 0.25,0.27 0.31,0.59 0.31,0.88 0,0.34 -0.08,0.6 -0.31,0.84 -0.37,0.39 -0.95,0.46 -1.31,0.46 H 70.5 v -4.67 z m 0.01,2.01 h 0.22 c 0.18,0 0.41,-0.02 0.58,-0.18 0.16,-0.15 0.18,-0.37 0.18,-0.53 0,-0.14 -0.02,-0.31 -0.17,-0.45 -0.16,-0.15 -0.36,-0.17 -0.57,-0.17 h -0.25 v 1.34 z m 0,1.99 h 0.43 c 0.2,0 0.53,-0.04 0.71,-0.18 0.14,-0.11 0.23,-0.31 0.23,-0.52 0,-0.19 -0.07,-0.37 -0.19,-0.49 -0.2,-0.19 -0.48,-0.21 -0.74,-0.21 h -0.45 v 1.4 z"
         id="path175" />
    </g>
    <g
       id="g178">
      <path
         d="m 178.08,264.14 1.3,3.26 1.3,-3.26 h 0.77 l -2.07,4.97 -2.07,-4.97 z"
         id="path176" />
      <path
         d="m 185.29,265.23 c -0.52,-0.47 -1,-0.52 -1.27,-0.52 -1.02,0 -1.7,0.75 -1.7,1.78 0,1.03 0.71,1.75 1.71,1.75 0.56,0 0.99,-0.29 1.26,-0.54 v 0.85 c -0.47,0.28 -0.96,0.35 -1.28,0.35 -0.85,0 -1.38,-0.38 -1.65,-0.64 -0.55,-0.51 -0.75,-1.11 -0.75,-1.76 0,-0.86 0.36,-1.46 0.75,-1.83 0.48,-0.46 1.04,-0.61 1.69,-0.61 0.43,0 0.84,0.08 1.25,0.34 v 0.84 z"
         id="path177" />
      <path
         d="m 188.84,267.68 h -2 l -0.51,1.13 h -0.77 l 2.33,-4.95 2.21,4.95 h -0.77 z m -0.28,-0.67 -0.69,-1.58 -0.72,1.58 z"
         id="path178" />
    </g>
    <g
       id="g188">
      <path
         d="m 138.16,171.15 h -1.62 v 1.18 h 1.57 V 173 h -1.57 v 2.14 h -0.71 v -4.67 h 2.34 v 0.67 z"
         id="path179" />
      <path
         d="m 139.69,170.47 v 4.67 h -0.71 v -4.67 z"
         id="path180" />
      <path
         d="m 141.52,170.47 v 4 h 1.37 v 0.67 h -2.09 v -4.67 h 0.71 z"
         id="path181" />
      <path
         d="m 144.65,171.15 v 4 h -0.71 v -4 h -1.07 v -0.67 h 2.86 v 0.67 h -1.07 z"
         id="path182" />
      <path
         d="m 148.93,171.15 h -1.86 v 1.18 h 1.81 V 173 h -1.81 v 1.47 h 1.86 v 0.67 h -2.58 v -4.67 h 2.58 v 0.67 z"
         id="path183" />
      <path
         d="m 150.69,170.47 c 0.57,0 0.93,0.07 1.23,0.27 0.51,0.34 0.55,0.9 0.55,1.1 0,0.67 -0.41,1.16 -1.04,1.3 l 1.46,2 h -0.86 l -1.34,-1.91 h -0.13 v 1.91 h -0.71 v -4.67 h 0.83 z m -0.12,2.15 h 0.22 c 0.2,0 0.99,-0.02 0.99,-0.76 0,-0.66 -0.62,-0.72 -0.97,-0.72 h -0.25 v 1.48 z"
         id="path184" />
      <path
         d="m 139.11,179.55 v 4 h -0.71 v -4 h -1.07 v -0.67 h 2.86 v 0.67 h -1.07 z"
         id="path185" />
      <path
         d="m 141.93,181.53 -1.53,-2.65 h 0.81 l 1.08,1.87 1.08,-1.87 h 0.81 l -1.53,2.65 v 2.02 h -0.71 v -2.02 z"
         id="path186" />
      <path
         d="m 145.77,178.87 c 0.29,0 0.69,0.03 1.02,0.25 0.39,0.26 0.58,0.71 0.58,1.13 0,0.27 -0.07,0.69 -0.46,1.02 -0.37,0.31 -0.8,0.36 -1.14,0.36 h -0.32 v 1.9 h -0.71 v -4.67 h 1.03 z m -0.32,2.12 h 0.32 c 0.62,0 0.91,-0.3 0.91,-0.74 0,-0.26 -0.1,-0.72 -0.92,-0.72 h -0.31 z"
         id="path187" />
      <path
         d="m 150.68,179.55 h -1.86 v 1.18 h 1.81 v 0.67 h -1.81 v 1.47 h 1.86 v 0.67 h -2.58 v -4.67 h 2.58 v 0.67 z"
         id="path188" />
    </g>
    <g
       id="g194">
      <path
         d="m 233.17,237.47 h -1.62 v 1.18 h 1.57 v 0.67 h -1.57 v 2.14 h -0.71 v -4.67 h 2.34 v 0.67 z"
         id="path189" />
      <path
         d="m 234.69,236.8 c 0.6,0 0.98,0.08 1.29,0.36 0.25,0.24 0.37,0.54 0.37,0.92 0,0.18 -0.03,0.37 -0.14,0.55 -0.1,0.18 -0.25,0.27 -0.35,0.32 0.08,0.02 0.37,0.1 0.6,0.34 0.25,0.27 0.31,0.59 0.31,0.88 0,0.34 -0.08,0.6 -0.31,0.84 -0.37,0.39 -0.95,0.46 -1.31,0.46 h -1.17 v -4.67 z m 0.01,2.01 h 0.22 c 0.18,0 0.41,-0.02 0.58,-0.18 0.16,-0.15 0.18,-0.37 0.18,-0.53 0,-0.14 -0.02,-0.31 -0.17,-0.45 -0.16,-0.15 -0.36,-0.17 -0.57,-0.17 h -0.25 v 1.34 z m 0,1.99 h 0.43 c 0.2,0 0.53,-0.04 0.71,-0.18 0.14,-0.11 0.23,-0.31 0.23,-0.52 0,-0.19 -0.07,-0.37 -0.19,-0.49 -0.2,-0.19 -0.48,-0.21 -0.74,-0.21 h -0.45 v 1.4 z"
         id="path190" />
      <path
         d="m 237.46,239.62 h 1.68 v 0.71 h -1.68 z"
         id="path191" />
      <path
         d="m 242.06,237.84 c -0.04,-0.11 -0.1,-0.2 -0.21,-0.29 -0.15,-0.12 -0.3,-0.17 -0.5,-0.17 -0.43,0 -0.66,0.26 -0.66,0.56 0,0.14 0.05,0.39 0.5,0.57 l 0.47,0.19 c 0.86,0.35 1.1,0.84 1.1,1.37 0,0.89 -0.63,1.5 -1.51,1.5 -0.54,0 -0.86,-0.2 -1.1,-0.47 -0.25,-0.28 -0.36,-0.59 -0.39,-0.91 l 0.71,-0.15 c 0,0.23 0.08,0.45 0.2,0.59 0.13,0.17 0.33,0.28 0.61,0.28 0.43,0 0.77,-0.31 0.77,-0.78 0,-0.47 -0.36,-0.67 -0.67,-0.8 l -0.45,-0.19 c -0.39,-0.16 -0.95,-0.48 -0.95,-1.18 0,-0.63 0.49,-1.23 1.37,-1.23 0.5,0 0.79,0.19 0.94,0.31 0.13,0.11 0.26,0.27 0.36,0.47 l -0.57,0.34 z"
         id="path192" />
      <path
         d="m 246.4,240.34 h -2 l -0.51,1.13 h -0.77 l 2.33,-4.94 2.21,4.94 h -0.77 z m -0.28,-0.67 -0.69,-1.58 -0.72,1.58 z"
         id="path193" />
      <path
         d="m 249.27,237.47 v 4 h -0.71 v -4 h -1.07 v -0.67 h 2.86 v 0.67 h -1.07 z"
         id="path194" />
    </g>
    <g
       id="g200">
      <path
         d="m 175.28,186.25 c -0.04,-0.11 -0.1,-0.2 -0.21,-0.29 -0.15,-0.12 -0.3,-0.17 -0.5,-0.17 -0.43,0 -0.66,0.26 -0.66,0.56 0,0.14 0.05,0.38 0.5,0.57 l 0.47,0.19 c 0.86,0.35 1.1,0.84 1.1,1.37 0,0.89 -0.63,1.5 -1.51,1.5 -0.54,0 -0.86,-0.2 -1.1,-0.47 -0.25,-0.28 -0.36,-0.59 -0.39,-0.91 l 0.71,-0.15 c 0,0.23 0.08,0.45 0.2,0.6 0.13,0.17 0.33,0.28 0.61,0.28 0.43,0 0.77,-0.32 0.77,-0.78 0,-0.46 -0.36,-0.67 -0.67,-0.8 l -0.45,-0.19 c -0.39,-0.16 -0.95,-0.48 -0.95,-1.18 0,-0.63 0.49,-1.23 1.37,-1.23 0.5,0 0.79,0.19 0.94,0.32 0.13,0.11 0.26,0.27 0.36,0.47 l -0.57,0.34 z"
         id="path195" />
      <path
         d="m 177.9,185.21 c 0.29,0 0.69,0.03 1.02,0.25 0.39,0.26 0.58,0.71 0.58,1.13 0,0.27 -0.07,0.69 -0.46,1.02 -0.37,0.32 -0.8,0.36 -1.14,0.36 h -0.32 v 1.9 h -0.71 v -4.67 h 1.03 z m -0.31,2.11 h 0.32 c 0.62,0 0.91,-0.3 0.91,-0.74 0,-0.26 -0.1,-0.72 -0.92,-0.72 h -0.31 z"
         id="path196" />
      <path
         d="m 181.07,185.21 c 0.57,0 0.93,0.07 1.23,0.27 0.51,0.34 0.55,0.9 0.55,1.1 0,0.67 -0.41,1.16 -1.04,1.3 l 1.46,2 h -0.86 l -1.34,-1.91 h -0.13 v 1.91 h -0.71 v -4.67 h 0.83 z m -0.12,2.14 h 0.22 c 0.2,0 0.99,-0.02 0.99,-0.76 0,-0.66 -0.62,-0.72 -0.97,-0.72 h -0.25 v 1.49 z"
         id="path197" />
      <path
         d="m 186.55,185.88 h -1.86 v 1.18 h 1.81 v 0.67 h -1.81 v 1.47 h 1.86 v 0.67 h -2.58 v -4.67 h 2.58 v 0.67 z"
         id="path198" />
      <path
         d="m 190.22,188.75 h -2 l -0.51,1.13 h -0.77 l 2.33,-4.95 2.21,4.95 h -0.77 z m -0.29,-0.67 -0.69,-1.58 -0.72,1.58 z"
         id="path199" />
      <path
         d="m 193.04,185.21 c 0.65,0 1.22,0.07 1.74,0.46 0.57,0.43 0.9,1.11 0.9,1.88 0,0.77 -0.32,1.45 -0.94,1.88 -0.55,0.38 -1.06,0.45 -1.71,0.45 h -0.97 v -4.67 z m -0.26,4 h 0.31 c 0.35,0 0.83,-0.03 1.24,-0.33 0.32,-0.25 0.64,-0.69 0.64,-1.33 0,-0.64 -0.29,-1.1 -0.63,-1.34 -0.41,-0.29 -0.9,-0.32 -1.25,-0.32 h -0.31 v 3.33 z"
         id="path200" />
    </g>
    <path
       d="m 184.62,132.17 c -0.36,0.23 -0.77,0.35 -1.31,0.35 -1.4,0 -2.43,-1.04 -2.43,-2.42 0,-1.38 1.03,-2.42 2.43,-2.42 1.4,0 2.43,1.05 2.43,2.42 0,0.85 -0.38,1.39 -0.64,1.67 l 0.76,0.75 h -0.88 l -0.35,-0.35 z m -0.01,-0.89 c 0.22,-0.26 0.41,-0.6 0.41,-1.19 0,-1.04 -0.71,-1.77 -1.72,-1.77 -1.01,0 -1.72,0.73 -1.72,1.77 0,1.04 0.71,1.76 1.72,1.76 0.35,0 0.6,-0.08 0.81,-0.18 l -1.11,-1.1 h 0.89 l 0.71,0.71 z"
       id="path201" />
    <g
       id="g205">
      <path
         d="m 17.17,52.46 1.3,3.26 1.3,-3.26 h 0.77 l -2.07,4.97 -2.07,-4.97 z"
         id="path202" />
      <path
         d="m 25.55,54.8 c 0,1.37 -1.03,2.42 -2.43,2.42 -1.4,0 -2.43,-1.05 -2.43,-2.42 0,-1.37 1.03,-2.42 2.43,-2.42 1.4,0 2.43,1.05 2.43,2.42 z m -0.71,0 c 0,-1.04 -0.71,-1.77 -1.72,-1.77 -1.01,0 -1.72,0.73 -1.72,1.77 0,1.04 0.71,1.76 1.72,1.76 1.01,0 1.72,-0.73 1.72,-1.76 z"
         id="path203" />
      <path
         d="m 29.91,53.55 c -0.52,-0.47 -1,-0.52 -1.27,-0.52 -1.02,0 -1.7,0.75 -1.7,1.78 0,1.03 0.71,1.75 1.71,1.75 0.56,0 0.99,-0.29 1.26,-0.54 v 0.85 c -0.47,0.28 -0.96,0.35 -1.28,0.35 -0.85,0 -1.38,-0.38 -1.65,-0.64 -0.55,-0.51 -0.75,-1.11 -0.75,-1.77 0,-0.86 0.36,-1.46 0.75,-1.83 0.48,-0.46 1.04,-0.61 1.69,-0.61 0.43,0 0.84,0.08 1.25,0.34 v 0.84 z"
         id="path204" />
      <path
         d="m 32.08,53.13 v 4 h -0.71 v -4 H 30.3 v -0.67 h 2.86 v 0.67 h -1.07 z"
         id="path205" />
    </g>
    <g
       id="g211">
      <path
         d="m 177.92,81.79 h -1.62 v 1.18 h 1.57 v 0.67 h -1.57 v 2.14 h -0.71 v -4.67 h 2.34 v 0.67 z"
         id="path206" />
      <path
         d="m 179.45,81.11 v 4.67 h -0.71 v -4.67 z"
         id="path207" />
      <path
         d="m 181.28,81.11 v 4 h 1.37 v 0.67 h -2.09 v -4.67 h 0.71 z"
         id="path208" />
      <path
         d="m 184.41,81.79 v 4 h -0.71 v -4 h -1.07 v -0.67 h 2.86 v 0.67 h -1.07 z"
         id="path209" />
      <path
         d="m 188.69,81.79 h -1.86 v 1.18 h 1.81 v 0.67 h -1.81 v 1.47 h 1.86 v 0.67 h -2.58 v -4.67 h 2.58 v 0.67 z"
         id="path210" />
      <path
         d="m 190.44,81.11 c 0.57,0 0.93,0.07 1.23,0.27 0.51,0.34 0.55,0.9 0.55,1.1 0,0.67 -0.41,1.16 -1.04,1.3 l 1.46,2 h -0.86 l -1.34,-1.91 h -0.13 v 1.91 h -0.71 v -4.67 h 0.83 z m -0.11,2.15 h 0.22 c 0.2,0 0.99,-0.02 0.99,-0.76 0,-0.66 -0.62,-0.72 -0.97,-0.72 h -0.25 v 1.48 z"
         id="path211" />
    </g>
  </g>
  <g
     id="title_Kopie">
    <g
       id="g221">
      <path
         d="m 127.27,10.84 v 5.37 h 2.07 v 1.3 h -3.61 v -6.67 z"
         id="path212" />
      <path
         d="m 135.85,14.79 c 0,0.64 -0.08,1.43 -0.74,2.11 -0.64,0.66 -1.38,0.76 -2.08,0.76 -0.7,0 -1.44,-0.1 -2.08,-0.76 -0.66,-0.68 -0.74,-1.47 -0.74,-2.11 v -3.95 h 1.54 v 3.91 c 0,0.29 0.02,0.78 0.35,1.12 0.27,0.29 0.64,0.35 0.93,0.35 0.29,0 0.66,-0.06 0.93,-0.35 0.33,-0.34 0.35,-0.83 0.35,-1.12 v -3.91 h 1.54 z"
         id="path213" />
      <path
         d="m 140.52,13.87 h 3.31 v 0.07 c 0,0.81 -0.29,2.04 -1.03,2.81 -0.74,0.77 -1.59,0.91 -2.38,0.91 -0.79,0 -1.66,-0.13 -2.44,-0.93 -0.39,-0.4 -0.98,-1.21 -0.98,-2.54 0,-1.09 0.4,-1.96 0.96,-2.53 0.82,-0.85 1.83,-0.97 2.62,-0.97 0.55,0 1.25,0.09 1.87,0.5 0.45,0.3 0.84,0.77 1.08,1.19 l -1.39,0.75 c -0.13,-0.26 -0.33,-0.53 -0.59,-0.72 -0.3,-0.22 -0.64,-0.32 -1.02,-0.32 -0.61,0 -1.06,0.2 -1.38,0.54 -0.37,0.39 -0.57,0.96 -0.57,1.58 0,0.76 0.28,1.25 0.56,1.53 0.39,0.4 0.84,0.52 1.35,0.52 0.66,0 1.01,-0.23 1.16,-0.36 0.05,-0.04 0.35,-0.3 0.48,-0.79 h -1.61 z"
         id="path214" />
      <path
         d="m 148.19,13.87 h 3.31 v 0.07 c 0,0.81 -0.29,2.04 -1.03,2.81 -0.74,0.77 -1.59,0.91 -2.38,0.91 -0.79,0 -1.66,-0.13 -2.44,-0.93 -0.39,-0.4 -0.98,-1.21 -0.98,-2.54 0,-1.09 0.4,-1.96 0.96,-2.53 0.82,-0.85 1.83,-0.97 2.62,-0.97 0.55,0 1.25,0.09 1.87,0.5 0.45,0.3 0.84,0.77 1.08,1.19 l -1.39,0.75 c -0.13,-0.26 -0.33,-0.53 -0.59,-0.72 -0.3,-0.22 -0.64,-0.32 -1.02,-0.32 -0.61,0 -1.06,0.2 -1.38,0.54 -0.37,0.39 -0.57,0.96 -0.57,1.58 0,0.76 0.28,1.25 0.56,1.53 0.39,0.4 0.84,0.52 1.35,0.52 0.66,0 1.01,-0.23 1.16,-0.36 0.05,-0.04 0.35,-0.3 0.48,-0.79 h -1.61 z"
         id="path215" />
      <path
         d="m 156.42,12.14 h -2.23 v 1.29 h 2.12 v 1.3 h -2.12 v 1.48 h 2.23 v 1.3 h -3.77 v -6.67 h 3.77 z"
         id="path216" />
      <path
         d="m 159.58,16.21 h 2.86 v 1.3 h -5.39 l 3.2,-5.37 h -2.68 v -1.3 h 5.2 z"
         id="path217" />
      <path
         d="m 136.97,28.25 h -2.52 l -0.51,1.26 h -1.6 l 2.69,-6.67 h 1.41 l 2.63,6.67 h -1.6 z m -0.42,-1.18 -0.82,-2.24 -0.83,2.24 z"
         id="path218" />
      <path
         d="m 141.36,22.84 v 5.37 h 2.07 v 1.3 h -3.61 v -6.67 z"
         id="path219" />
      <path
         d="m 148.53,28.25 h -2.52 l -0.51,1.26 h -1.6 l 2.69,-6.67 H 148 l 2.63,6.67 h -1.6 z m -0.42,-1.18 -0.82,-2.24 -0.83,2.24 z"
         id="path220" />
      <path
         d="m 155.15,24.14 h -2.23 v 1.29 h 2.12 v 1.3 h -2.12 v 1.48 h 2.23 v 1.3 h -3.77 v -6.67 h 3.77 z"
         id="path221" />
    </g>
  </g>
</svg>
