<?xml version="1.0" encoding="utf-8"?>
<!-- Generator: Adobe Illustrator 28.1.0, SVG Export Plug-In . SVG Version: 6.00 Build 0)  -->
<svg version="1.1" id="Ebene_1" xmlns="http://www.w3.org/2000/svg" xmlns:xlink="http://www.w3.org/1999/xlink" x="0px" y="0px"
	 viewBox="0 0 42.52 42.52" enable-background="new 0 0 42.52 42.52" xml:space="preserve">
<g id="PRM_x5F_LP_x5F_FREQ">
	<g>
		<g>
			<path fill="#1E1E1C" d="M1.64,25.11l0.52-3.89l-0.5-3.89c-0.3-2.31,0.45-4.6,1.99-6.28c0.7-2.17,2.31-3.96,4.47-4.85l3.63-1.49
				l3.12-2.38c1.85-1.41,4.21-1.91,6.44-1.42c2.23-0.48,4.59,0.02,6.43,1.45l3.11,2.4l3.62,1.51c2.15,0.9,3.76,2.69,4.45,4.87
				c1.53,1.69,2.27,3.99,1.96,6.29l-0.52,3.89l0.5,3.89c0.3,2.31-0.45,4.6-1.99,6.28c-0.7,2.17-2.31,3.96-4.47,4.85l-3.63,1.49
				l-3.12,2.38c-1.85,1.41-4.21,1.91-6.44,1.42c-2.23,0.48-4.59-0.02-6.43-1.45l-3.11-2.4l-3.62-1.51c-2.15-0.9-3.76-2.69-4.45-4.87
				C2.07,29.71,1.33,27.41,1.64,25.11z"/>
		</g>
		<g>
			<path fill="#2E2E2E" d="M17.77,3.45l3.53,0.47l3.54-0.46c2.1-0.27,4.18,0.41,5.7,1.81c1.97,0.63,3.6,2.1,4.4,4.06l1.36,3.3
				l2.16,2.83c1.28,1.68,1.73,3.82,1.28,5.85c0.44,2.02-0.02,4.17-1.31,5.84l-2.18,2.82l-1.37,3.29c-0.81,1.95-2.44,3.41-4.42,4.04
				c-1.53,1.39-3.62,2.06-5.71,1.78l-3.53-0.47l-3.54,0.46c-2.1,0.27-4.18-0.41-5.7-1.81c-1.97-0.63-3.6-2.1-4.4-4.06l-1.36-3.3
				l-2.16-2.83c-1.28-1.68-1.73-3.82-1.28-5.85c-0.44-2.02,0.02-4.17,1.31-5.84l2.18-2.82l1.37-3.29c0.81-1.95,2.44-3.41,4.42-4.04
				C13.59,3.84,15.67,3.17,17.77,3.45z"/>
		</g>
		<g>
			<path fill="#2E2E2E" d="M18.2,5.64l3.1,0.42l3.1-0.4c1.84-0.24,3.66,0.36,5,1.59c1.73,0.55,3.15,1.84,3.86,3.56l1.19,2.89
				l1.9,2.48c1.12,1.47,1.52,3.35,1.13,5.13c0.39,1.78-0.02,3.65-1.15,5.12l-1.91,2.48l-1.2,2.88c-0.71,1.71-2.14,2.99-3.88,3.54
				c-1.34,1.22-3.17,1.81-5.01,1.56l-3.1-0.42l-3.1,0.4c-1.84,0.24-3.66-0.36-5-1.59c-1.73-0.55-3.15-1.84-3.86-3.56l-1.19-2.89
				l-1.9-2.48C5.05,24.87,4.66,23,5.05,21.22c-0.39-1.78,0.02-3.65,1.15-5.12l1.91-2.48l1.2-2.88c0.71-1.71,2.14-2.99,3.88-3.54
				C14.53,5.98,16.36,5.39,18.2,5.64z"/>
		</g>
		<g>
			<path fill="#434342" d="M24.29,37.12l-3.07-0.41l-3.07,0.4c-1.87,0.24-3.75-0.35-5.16-1.61c-1.8-0.59-3.24-1.93-3.96-3.68
				l-1.18-2.86l-1.88-2.46c-1.15-1.5-1.58-3.42-1.18-5.27c-0.39-1.85,0.05-3.77,1.21-5.27L7.9,13.5l1.19-2.86
				c0.73-1.75,2.17-3.08,3.98-3.66c1.41-1.26,3.29-1.84,5.16-1.59l3.07,0.41l3.07-0.4c1.87-0.24,3.75,0.35,5.16,1.61
				c1.8,0.59,3.24,1.93,3.96,3.68l1.18,2.86l1.88,2.46c1.15,1.5,1.58,3.42,1.18,5.27c0.39,1.85-0.05,3.77-1.21,5.27l-1.89,2.45
				l-1.19,2.86c-0.73,1.75-2.17,3.08-3.98,3.66c-1.19,1.07-2.73,1.65-4.3,1.65C24.87,37.18,24.58,37.16,24.29,37.12z M24.43,5.9
				l-3.13,0.4l-3.13-0.42c-1.75-0.23-3.5,0.31-4.81,1.5l-0.09,0.05c-1.69,0.53-3.05,1.77-3.72,3.4l-1.2,2.88l-1.94,2.53
				c-1.08,1.4-1.48,3.19-1.11,4.92l0.01,0.05l-0.01,0.05C4.9,23,5.3,24.8,6.37,26.2l1.9,2.48l1.22,2.94
				c0.67,1.63,2.02,2.88,3.71,3.42l0.09,0.05c1.3,1.2,3.06,1.75,4.81,1.52l3.13-0.4l3.13,0.42c1.75,0.23,3.5-0.31,4.81-1.5
				l0.09-0.05c1.69-0.53,3.04-1.77,3.72-3.4l1.2-2.88l1.94-2.53c1.08-1.4,1.48-3.19,1.11-4.92l-0.01-0.05l0.01-0.05
				c0.38-1.73-0.01-3.52-1.08-4.93l-1.9-2.48l-1.22-2.95c-0.67-1.63-2.02-2.88-3.71-3.42l-0.09-0.05c-1.11-1.02-2.55-1.57-4.04-1.57
				C24.94,5.85,24.68,5.86,24.43,5.9z"/>
		</g>
	</g>
	<g>
		<polygon fill="#FFDA22" points="20.82,3.14 21.3,20.66 21.79,3.14 20.82,3.14 		"/>
	</g>
</g>
</svg>
