<?xml version="1.0" encoding="utf-8"?>
<!-- Generator: Adobe Illustrator 28.1.0, SVG Export Plug-In . SVG Version: 6.00 Build 0)  -->
<svg version="1.1" id="Ebene_1" xmlns="http://www.w3.org/2000/svg" xmlns:xlink="http://www.w3.org/1999/xlink" x="0px" y="0px"
	 viewBox="0 0 28.35 28.35" enable-background="new 0 0 28.35 28.35" xml:space="preserve">
<g id="PRM_x5F_LP_x5F_FB">
	<g>
		<g>
			<g>
				<path fill="#1E1E1C" d="M27.27,16.74l-0.35-2.6l0.34-2.6c0.2-1.54-0.3-3.07-1.33-4.19c-0.46-1.45-1.54-2.64-2.98-3.24l-2.42-1
					l-2.08-1.59c-1.23-0.94-2.81-1.27-4.3-0.94c-1.49-0.32-3.06,0.02-4.29,0.96l-2.08,1.6L5.35,4.16c-1.43,0.6-2.51,1.8-2.97,3.25
					c-1.02,1.13-1.52,2.66-1.31,4.2l0.35,2.6l-0.34,2.6c-0.2,1.54,0.3,3.07,1.33,4.19c0.46,1.45,1.54,2.64,2.98,3.24l2.42,1
					l2.08,1.59c1.23,0.94,2.81,1.27,4.3,0.94c1.49,0.32,3.06-0.02,4.29-0.96l2.08-1.6l2.42-1.01c1.43-0.6,2.51-1.8,2.97-3.25
					C26.98,19.81,27.48,18.28,27.27,16.74z"/>
			</g>
			<g>
				<path fill="#2E2E2E" d="M16.5,2.28L14.15,2.6l-2.36-0.31C10.39,2.11,9,2.57,7.98,3.5c-1.32,0.42-2.4,1.4-2.94,2.71l-0.91,2.2
					L2.69,10.3c-0.86,1.12-1.16,2.55-0.86,3.9c-0.29,1.35,0.01,2.78,0.88,3.9l1.45,1.88l0.92,2.2c0.54,1.3,1.63,2.28,2.95,2.69
					c1.02,0.93,2.41,1.38,3.81,1.19l2.36-0.32l2.36,0.31c1.4,0.18,2.79-0.27,3.81-1.21c1.32-0.42,2.4-1.4,2.94-2.71l0.91-2.2
					l1.44-1.89c0.86-1.12,1.16-2.55,0.86-3.9c0.29-1.35-0.01-2.78-0.88-3.9l-1.45-1.88l-0.92-2.2c-0.54-1.3-1.63-2.28-2.95-2.69
					C19.29,2.54,17.9,2.1,16.5,2.28z"/>
			</g>
			<g>
				<path fill="#2E2E2E" d="M16.22,3.75l-2.07,0.28l-2.07-0.27C10.85,3.6,9.64,4,8.74,4.82c-1.15,0.37-2.1,1.23-2.58,2.37L5.37,9.12
					l-1.27,1.66c-0.75,0.98-1.01,2.24-0.75,3.42c-0.26,1.18,0.01,2.44,0.77,3.42l1.27,1.65l0.8,1.93c0.48,1.14,1.43,2,2.59,2.36
					c0.9,0.82,2.12,1.21,3.34,1.04l2.07-0.28l2.07,0.27c1.23,0.16,2.44-0.24,3.34-1.06c1.15-0.37,2.1-1.23,2.58-2.37l0.79-1.93
					l1.27-1.66c0.75-0.98,1.01-2.24,0.75-3.42c0.26-1.18-0.01-2.44-0.77-3.42l-1.27-1.65l-0.8-1.93c-0.48-1.14-1.43-2-2.59-2.36
					C18.66,3.98,17.44,3.58,16.22,3.75z"/>
			</g>
			<g>
				<path fill="#434342" d="M11.58,24.8c-1.05,0-2.08-0.39-2.87-1.1c-1.2-0.39-2.17-1.28-2.65-2.44l-0.79-1.91l-1.26-1.64
					c-0.77-1-1.06-2.28-0.81-3.52c-0.26-1.24,0.02-2.52,0.79-3.52l1.25-1.64l0.79-1.91C6.5,5.96,7.46,5.07,8.66,4.67
					C9.6,3.83,10.85,3.44,12.1,3.6l2.05,0.26l2.05-0.27c1.25-0.17,2.51,0.22,3.45,1.06c1.2,0.39,2.17,1.28,2.65,2.44L23.09,9
					l1.26,1.64c0.77,1,1.06,2.28,0.81,3.52c0.26,1.24-0.02,2.52-0.79,3.52l-1.25,1.64l-0.79,1.91c-0.48,1.17-1.44,2.06-2.64,2.46
					c-0.94,0.85-2.19,1.24-3.44,1.08l-2.05-0.26l-2.05,0.27C11.96,24.78,11.77,24.8,11.58,24.8z M11.55,3.88
					c-0.99,0-1.95,0.37-2.7,1.05L8.79,4.97C7.67,5.33,6.76,6.16,6.32,7.25L5.5,9.22l-1.27,1.66c-0.72,0.94-0.98,2.13-0.72,3.29
					l0.01,0.03l-0.01,0.03c-0.25,1.15,0.02,2.35,0.74,3.28l1.29,1.69l0.8,1.93c0.45,1.09,1.36,1.91,2.49,2.27l0.06,0.03
					c0.87,0.79,2.05,1.16,3.21,1l2.09-0.28l2.09,0.27c1.17,0.15,2.34-0.22,3.21-1.02l0.06-0.03c1.12-0.36,2.03-1.19,2.48-2.28
					l0.81-1.97l1.27-1.66c0.72-0.94,0.98-2.13,0.72-3.29l-0.01-0.03l0.01-0.03c0.25-1.15-0.02-2.35-0.74-3.28L22.8,9.14L22,7.22
					c-0.45-1.09-1.36-1.91-2.49-2.27l-0.06-0.03c-0.87-0.79-2.05-1.16-3.21-1l-2.09,0.28l-2.09-0.27
					C11.89,3.9,11.72,3.88,11.55,3.88z"/>
			</g>
		</g>
		<g>
			<polygon fill="#FFDA22" points="14.47,2.08 14.15,13.77 13.82,2.08 14.47,2.08 			"/>
		</g>
	</g>
</g>
</svg>
